<svg width="30" height="30" viewBox="0 0 30 30" fill="none" xmlns="http://www.w3.org/2000/svg">
<g clip-path="url(#clip0)">
<path d="M20.6539 18.0845L21.0527 18.4836C21.4382 18.8707 21.9523 19.0839 22.4996 19.0839C23.0469 19.0839 23.5609 18.8707 23.9458 18.4843L29.3997 13.0268C29.7865 12.6411 29.9996 12.1267 29.9996 11.579C29.9996 11.0313 29.7865 10.517 29.4003 10.1318L29.0008 9.73209C28.7344 9.46561 28.303 9.46561 28.0367 9.73209L20.6539 17.1198C20.3875 17.3862 20.3875 17.8179 20.6539 18.0845Z" fill="#FF4848"/>
<path d="M11.9079 9.33204C12.0411 9.46531 12.2156 9.53192 12.39 9.53192C12.5645 9.53192 12.7389 9.46531 12.8721 9.33204L20.2549 1.94437C20.5213 1.67788 20.5213 1.2461 20.2549 0.979614L19.8561 0.580494C19.085 -0.193711 17.7327 -0.193072 16.963 0.579855L11.5091 6.03726C11.1222 6.42302 10.9092 6.93739 10.9092 7.48506C10.9092 8.03273 11.1222 8.5471 11.5084 8.93222L11.9079 9.33204Z" fill="#FF4848"/>
<path d="M18.726 16.1547C18.8592 16.288 19.0337 16.3546 19.2081 16.3546C19.3825 16.3546 19.557 16.288 19.6902 16.1547L27.073 8.76702C27.3394 8.50054 27.3394 8.06875 27.073 7.80227L22.1831 2.90909C21.9167 2.64261 21.4853 2.64261 21.219 2.90909L13.8362 10.2968C13.5698 10.5633 13.5698 10.995 13.8362 11.2615L14.8165 12.2425C9.53662 16.8206 2.7505 23.3886 0.799006 25.3414C0.283615 25.8571 0 26.542 0 27.2709C0 28.776 1.22312 29.9999 2.7273 29.9999C3.45573 29.9999 4.14019 29.7161 4.65559 29.2004C7.00473 26.8497 13.4085 20.2136 17.762 15.19L18.726 16.1547Z" fill="#FF4848"/>
<path d="M25.9088 23.1819H16.3634C14.1075 23.1819 12.2725 24.9971 12.2725 27.253C12.2725 28.7571 13.4956 29.9803 14.9998 29.9803H27.2725C28.7766 29.9803 29.9998 28.7572 29.9998 27.253C29.9997 24.9971 28.1647 23.1819 25.9088 23.1819Z" fill="#FF4848"/>
</g>
<defs>
<clipPath id="clip0">
<rect width="30" height="30" fill="white"/>
</clipPath>
</defs>
</svg>
