<svg width="20" height="20" viewBox="0 0 20 20" fill="none" xmlns="http://www.w3.org/2000/svg">
<g clip-path="url(#clip0)">
<path d="M12.6853 6.1692C13.0155 5.38224 12.7371 4.45175 11.9898 3.98187L13.4824 0.930082C13.7335 0.418105 13.2407 -0.146288 12.699 0.0345852L11.0628 0.580108L10.358 0.109983C10.1314 -0.0408123 9.8351 -0.0335548 9.61657 0.127723L8.96259 0.611154L7.30828 0.0370044C6.76437 -0.151409 6.26557 0.415363 6.51761 0.930082L8.01024 3.98187C7.26304 4.45167 6.98447 5.38204 7.31473 6.1692C5.39431 6.75101 3.9924 8.53797 3.9924 10.6459V16.7744C3.9924 18.5529 5.43947 20 7.21796 20H12.7821C14.5605 20 16.0076 18.5529 16.0076 16.7744V10.6459C16.0076 8.53797 14.6057 6.75101 12.6853 6.1692ZM8.60656 10.4846C9.08516 10.4846 9.47464 10.8741 9.47464 11.3527C9.47464 11.8313 9.08516 12.2208 8.60656 12.2208C8.12797 12.2208 7.73849 11.8313 7.73849 11.3527C7.73849 10.8741 8.12797 10.4846 8.60656 10.4846ZM8.9517 5.00114H11.0483C11.3152 5.00114 11.5321 5.21806 11.5321 5.48498C11.5321 5.75189 11.3152 5.96881 11.0483 5.96881H8.9517C8.68478 5.96881 8.46786 5.75189 8.46786 5.48498C8.46786 5.21806 8.68478 5.00114 8.9517 5.00114ZM11.3934 15.5649C10.9149 15.5649 10.5254 15.1754 10.5254 14.6968C10.5254 14.2182 10.9149 13.8287 11.3934 13.8287C11.872 13.8287 12.2615 14.2182 12.2615 14.6968C12.2615 15.1754 11.872 15.5649 11.3934 15.5649ZM12.1281 11.8087L8.78397 15.1528C8.65817 15.279 8.49286 15.3419 8.32796 15.3419C7.75917 15.3419 7.46403 14.6487 7.87194 14.2408L11.216 10.8967C11.468 10.6447 11.8765 10.6447 12.1281 10.8967C12.3801 11.1483 12.3801 11.5567 12.1281 11.8087Z" fill="black"/>
</g>
<defs>
<clipPath id="clip0">
<rect width="20" height="20" fill="white"/>
</clipPath>
</defs>
</svg>
