<svg width="30" height="30" viewBox="0 0 30 30" fill="none" xmlns="http://www.w3.org/2000/svg">
<path d="M4.44922 13.0479V15.2636L13.0307 22.6142C13.1478 22.7116 13.2233 22.8499 13.2418 23.001V29.9999L16.7588 28.0655V23.001C16.7773 22.8498 16.8527 22.7115 16.9698 22.6141L25.5513 15.2635V13.0479H4.44922V13.0479Z" fill="#FF4848"/>
<path d="M7.01633 9.77706C8.00695 9.77706 8.81001 8.974 8.81001 7.98338C8.81001 6.99276 8.00695 6.1897 7.01633 6.1897C6.02571 6.1897 5.22266 6.99276 5.22266 7.98338C5.22266 8.974 6.02571 9.77706 7.01633 9.77706Z" fill="#FF4848"/>
<path d="M18.6934 7.77234C18.6932 9.03488 19.7166 10.0585 20.9791 10.0586C22.2417 10.0588 23.2653 9.03542 23.2654 7.77288C23.2656 6.51034 22.2422 5.48671 20.9797 5.48657C19.7307 5.48644 18.7128 6.48866 18.6936 7.73747C18.6934 7.74912 18.6934 7.76069 18.6934 7.77234Z" fill="#FF4848"/>
<path d="M13.9106 6.04896C14.5127 6.04896 15.0009 5.56083 15.0009 4.95868C15.0009 4.35654 14.5127 3.86841 13.9106 3.86841C13.3084 3.86841 12.8203 4.35654 12.8203 4.95868C12.8203 5.56083 13.3084 6.04896 13.9106 6.04896Z" fill="#FF4848"/>
<path d="M18.1293 2.18055C18.7315 2.18055 19.2196 1.69243 19.2196 1.09028C19.2196 0.48812 18.7315 0 18.1293 0C17.5272 0 17.0391 0.48812 17.0391 1.09028C17.0391 1.69243 17.5272 2.18055 18.1293 2.18055Z" fill="#FF4848"/>
</svg>
