<svg width="30" height="30" viewBox="0 0 30 30" fill="none" xmlns="http://www.w3.org/2000/svg">
<g clip-path="url(#clip0)">
<path d="M18.0211 15.1594C17.9114 15.0571 17.7518 15.0059 17.5423 15.0059H16.835V16.3349H17.5423C17.7518 16.3349 17.9114 16.2837 18.0211 16.1812C18.1306 16.0789 18.1854 15.9087 18.1854 15.6704C18.1854 15.4322 18.1306 15.2619 18.0211 15.1594Z" fill="#FF4848"/>
<path d="M0 6.60551V23.3944C0 24.6951 1.05814 25.7532 2.35887 25.7532H5.90473V4.2467H2.35887C1.05814 4.2467 0 5.30485 0 6.60551Z" fill="#FF4848"/>
<path d="M27.6416 4.2467H7.66406V7.75957H30.0005V6.60557C30.0005 5.30485 28.9423 4.2467 27.6416 4.2467Z" fill="#FF4848"/>
<path d="M7.66406 9.51855V25.7535H27.6416C28.9423 25.7535 30.0005 24.6953 30.0005 23.3947V9.51855H7.66406ZM13.4129 18.3287C13.5461 18.3287 13.6569 18.3073 13.7451 18.2643C13.8332 18.2215 13.8962 18.156 13.9344 18.0678C13.9724 17.9797 13.9975 17.907 14.0095 17.8499C14.0213 17.7926 14.032 17.7142 14.0416 17.6141C14.0606 17.3903 14.244 17.2783 14.5917 17.2783C14.7965 17.2783 14.9418 17.3152 15.0276 17.389C15.1133 17.463 15.1562 17.6023 15.1562 17.8071C15.1562 18.2691 14.9882 18.6336 14.6524 18.9002C14.3166 19.1671 13.8867 19.3004 13.3628 19.3004C12.853 19.3004 12.4398 19.1647 12.1231 18.8931C11.8063 18.6216 11.6479 18.1954 11.6479 17.6142V15.7208C11.6479 15.1396 11.8063 14.7132 12.1231 14.4418C12.4398 14.1703 12.853 14.0346 13.3628 14.0346C13.8867 14.0346 14.3166 14.1608 14.6524 14.4133C14.9882 14.6658 15.1562 15.0135 15.1562 15.4564C15.1562 15.6613 15.1133 15.8006 15.0276 15.8745C14.9418 15.9484 14.799 15.9852 14.5989 15.9852C14.2416 15.9852 14.0558 15.8734 14.0416 15.6494C14.0273 15.2207 13.8153 15.0063 13.4057 15.0063C12.9769 15.0063 12.7626 15.2445 12.7626 15.7209V17.6143C12.7626 18.0905 12.9793 18.3287 13.4129 18.3287ZM19.1181 19.1146C18.9681 19.2385 18.8097 19.3004 18.643 19.3004C18.4762 19.3004 18.3572 19.2313 18.2858 19.0932L17.307 17.1926H16.8353V18.9146C16.8353 19.0242 16.7805 19.1088 16.671 19.1682C16.5613 19.2278 16.4304 19.2575 16.278 19.2575C16.1255 19.2575 15.9945 19.2278 15.885 19.1682C15.7754 19.1087 15.7206 19.0242 15.7206 18.9146V14.3703C15.7206 14.2799 15.7528 14.2013 15.8171 14.1346C15.8815 14.0679 15.9636 14.0346 16.0637 14.0346H17.5427C18.7144 14.0346 19.3004 14.5443 19.3004 15.5636C19.3004 16.3066 19.0121 16.7902 18.4358 17.014L19.3075 18.5931C19.3312 18.6264 19.3432 18.6694 19.3432 18.7216C19.3432 18.8599 19.2681 18.9908 19.1181 19.1146ZM24.0446 19.1682C23.935 19.2278 23.804 19.2575 23.6516 19.2575C23.4991 19.2575 23.3681 19.2278 23.2586 19.1682C23.149 19.1087 23.0943 19.0242 23.0943 18.9146V16.2352L22.4083 17.4069C22.3273 17.5451 22.2035 17.6141 22.0368 17.6141C21.8747 17.6141 21.7581 17.5451 21.6867 17.4069L21.0079 16.1637V18.9146C21.0079 19.0242 20.953 19.1088 20.8435 19.1682C20.7339 19.2278 20.6029 19.2575 20.4505 19.2575C20.298 19.2575 20.167 19.2278 20.0575 19.1682C19.9479 19.1087 19.8932 19.0242 19.8932 18.9146V14.5918C19.8932 14.4013 19.9467 14.2608 20.0539 14.1703C20.1611 14.0798 20.2933 14.0346 20.4505 14.0346C20.6648 14.0346 20.828 14.0667 20.9399 14.1311C21.0518 14.1954 21.1768 14.349 21.3151 14.5919L22.051 15.878L22.7869 14.5919C22.925 14.349 23.0501 14.1953 23.162 14.1311C23.2739 14.0667 23.4371 14.0346 23.6515 14.0346C23.8087 14.0346 23.9409 14.0798 24.048 14.1703C24.1552 14.2608 24.2088 14.4013 24.2088 14.5918V18.9146H24.2089C24.2089 19.0242 24.1541 19.1087 24.0446 19.1682Z" fill="#FF4848"/>
</g>
<defs>
<clipPath id="clip0">
<rect width="30" height="30" fill="white"/>
</clipPath>
</defs>
</svg>
