<svg width="16" height="16" viewBox="0 0 16 16" fill="none" xmlns="http://www.w3.org/2000/svg">
<path d="M14.5479 0.0100097C14.5313 0.008667 14.5172 0 14.4999 0H7.33325C6.23059 0 5.33325 0.897339 5.33325 2V2.66663C5.33325 3.03467 5.63184 3.33337 5.99988 3.33337C6.36792 3.33337 6.6665 3.03467 6.6665 2.66663V2C6.6665 1.63269 6.96582 1.33337 7.33325 1.33337H10.4392L10.2358 1.40137C9.69592 1.58801 9.33325 2.09668 9.33325 2.66663V12.6666H7.33325C6.96582 12.6666 6.6665 12.3673 6.6665 12V10.6666C6.6665 10.2987 6.36792 10 5.99988 10C5.63184 10 5.33325 10.2987 5.33325 10.6666V12C5.33325 13.1027 6.23059 14 7.33325 14H9.33325V14.6666C9.33325 15.402 9.93115 16 10.6665 16C10.8092 16 10.9446 15.9794 11.0912 15.934L15.0966 14.5986C15.6372 14.412 15.9999 13.9033 15.9999 13.3334V1.33337C15.9999 0.55603 15.3298 -0.0533447 14.5479 0.0100097Z" fill="#1B4962"/>
<path d="M7.13794 6.19533L4.47131 3.5287C4.28064 3.33803 3.99402 3.28065 3.74463 3.38405C3.49597 3.48732 3.33337 3.73073 3.33337 4.00001V6.00001H0.666626C0.298706 6.00001 0 6.29872 0 6.66664C0 7.03468 0.298706 7.33339 0.666626 7.33339H3.33337V9.33339C3.33337 9.60267 3.49597 9.84596 3.74463 9.94935C3.99402 10.0526 4.28064 9.99537 4.47131 9.8047L7.13794 7.13795C7.39868 6.87733 7.39868 6.45607 7.13794 6.19533Z" fill="#1B4962"/>
</svg>
