<svg width="30" height="30" viewBox="0 0 30 30" fill="none" xmlns="http://www.w3.org/2000/svg">
<path d="M4.44922 13.048V15.2637L13.0307 22.6143C13.1478 22.7117 13.2233 22.85 13.2418 23.0012V30L16.7588 28.0656V23.0011C16.7773 22.85 16.8527 22.7116 16.9698 22.6142L25.5513 15.2637V13.048H4.44922V13.048Z" fill="#FF4848"/>
<path d="M7.01633 9.77706C8.00695 9.77706 8.81001 8.974 8.81001 7.98338C8.81001 6.99276 8.00695 6.1897 7.01633 6.1897C6.02571 6.1897 5.22266 6.99276 5.22266 7.98338C5.22266 8.974 6.02571 9.77706 7.01633 9.77706Z" fill="#FF4848"/>
<path d="M18.6924 7.77234C18.6922 9.03488 19.7156 10.0585 20.9782 10.0586C22.2407 10.0588 23.2643 9.03542 23.2645 7.77288C23.2646 6.51034 22.2412 5.48671 20.9787 5.48657C19.7297 5.48644 18.7118 6.48866 18.6927 7.73747C18.6924 7.74912 18.6924 7.76069 18.6924 7.77234Z" fill="#FF4848"/>
<path d="M13.9096 6.04896C14.5118 6.04896 14.9999 5.56083 14.9999 4.95868C14.9999 4.35654 14.5118 3.86841 13.9096 3.86841C13.3075 3.86841 12.8193 4.35654 12.8193 4.95868C12.8193 5.56083 13.3075 6.04896 13.9096 6.04896Z" fill="#FF4848"/>
<path d="M18.1303 2.18055C18.7325 2.18055 19.2206 1.69243 19.2206 1.09028C19.2206 0.48812 18.7325 0 18.1303 0C17.5282 0 17.04 0.48812 17.04 1.09028C17.04 1.69243 17.5282 2.18055 18.1303 2.18055Z" fill="#FF4848"/>
</svg>
