<svg width="30" height="30" viewBox="0 0 30 30" fill="none" xmlns="http://www.w3.org/2000/svg">
<g clip-path="url(#clip0)">
<path d="M14.7646 30H12.4209C11.2578 30 10.3115 29.0538 10.3115 27.8906V13.3594C10.3115 12.1962 11.2578 11.25 12.4209 11.25H14.7646C15.9278 11.25 16.874 12.1962 16.874 13.3594V27.8906C16.874 29.0538 15.9277 30 14.7646 30Z" fill="#FF4848"/>
<path d="M5.8584 30H3.51465C2.3515 30 1.40527 29.0538 1.40527 27.8906V18.0469C1.40527 16.8837 2.3515 15.9375 3.51465 15.9375H5.8584C7.02155 15.9375 7.96778 16.8837 7.96778 18.0469V27.8906C7.96778 29.0538 7.02149 30 5.8584 30Z" fill="#FF4848"/>
<path d="M23.6704 30H21.3266C20.1635 30 19.2173 29.0538 19.2173 27.8906V8.4375H17.9294C17.3273 8.4375 16.7969 8.09766 16.5453 7.55062C16.2937 7.00359 16.3808 6.3798 16.7727 5.9226C16.7771 5.91738 16.7817 5.91217 16.7863 5.90707L21.8003 0.311836C21.9782 0.113379 22.232 0 22.4985 0C22.765 0 23.0188 0.113379 23.1967 0.311836L28.2108 5.90707C28.2154 5.91217 28.2199 5.91738 28.2244 5.9226C28.6162 6.37975 28.7034 7.00359 28.4518 7.55062C28.2002 8.09766 27.6698 8.4375 27.0677 8.4375H25.7798V27.8906C25.7798 29.0538 24.8335 30 23.6704 30Z" fill="#FF4848"/>
</g>
<defs>
<clipPath id="clip0">
<rect width="30" height="30" fill="white"/>
</clipPath>
</defs>
</svg>
