<svg width="30" height="30" viewBox="0 0 30 30" fill="none" xmlns="http://www.w3.org/2000/svg">
<g clip-path="url(#clip0)">
<path d="M27.0256 19.968H25.83C25.8616 19.7983 25.9329 19.5938 26.0784 19.3682C26.5264 18.674 26.6222 18.0609 26.7066 17.5199C26.7599 17.179 26.8103 16.8571 26.9471 16.4856C27.0684 16.1565 27.3016 15.8892 27.5405 15.6856L28.367 17.7229L30 17.0604L27.045 9.75342L26.3271 9.89869C26.2452 9.91526 24.306 10.3307 23.0935 12.576C22.2086 14.2148 20.2161 15.4872 17.792 15.9971L17.3089 14.2245L16.4473 14.4767C15.0243 14.8932 14.197 15.2684 12.9237 16.0208C12.9169 16.0297 12.9097 16.0391 12.9029 16.048L9.55577 20.5427H6.80848C6.80848 20.5427 5.26918 18.4444 4.38968 17.2737C3.89941 17.4606 3.46847 17.7323 3.09299 18.0908C2.14306 18.9977 1.75635 20.4984 2.06182 21.8713L0 23.2425L2.43783 27.6513H3.62038L4.53407 26.6231C5.45622 25.5854 6.78122 24.9903 8.16938 24.9903C9.34036 24.9903 10.4742 25.4147 11.3622 26.1855C12.3728 27.0627 13.3554 27.5443 14.2795 27.647C15.3406 27.7649 15.9804 27.5053 16.837 27.2306C17.4862 27.0224 17.9821 26.8087 18.833 26.919C19.1925 26.9656 19.5198 26.9878 19.8196 26.9878C21.5012 26.9878 22.3072 26.2865 22.9423 25.2444C23.1616 24.8845 23.4681 24.6775 23.7599 24.5856C24.524 24.3447 25.2263 25.2409 25.2263 25.2409L26.8912 24.4226C27.1874 25.2379 27.3379 26.0906 27.3379 26.961H29.1002C29.1002 25.785 28.8788 24.635 28.4421 23.543L27.0256 19.968Z" fill="#FF4848"/>
<path d="M7.70116 18.7803H8.66249L11.502 14.9783C12.7006 13.4102 14.3422 11.2625 14.3422 8.48404C14.3422 5.08723 11.5787 2.32373 8.18185 2.32373C4.78504 2.32373 2.02148 5.08723 2.02148 8.48404C2.02148 11.2625 3.663 13.4102 4.86164 14.9783L7.70116 18.7803ZM5.24853 8.48404C5.24853 6.86661 6.56443 5.55071 8.18185 5.55071C9.79928 5.55071 11.1152 6.86661 11.1152 8.48404C11.1152 10.1015 9.79928 11.4174 8.18185 11.4174C6.56443 11.4174 5.24853 10.1015 5.24853 8.48404Z" fill="#FF4848"/>
<path d="M9.26884 8.93436C9.51654 8.33677 9.2329 7.65152 8.63531 7.40381C8.03771 7.15611 7.35246 7.43975 7.10476 8.03734C6.85705 8.63494 7.1407 9.32019 7.73829 9.56789C8.33588 9.8156 9.02113 9.53196 9.26884 8.93436Z" fill="#FF4848"/>
</g>
<defs>
<clipPath id="clip0">
<rect width="30" height="30" fill="white"/>
</clipPath>
</defs>
</svg>
