<svg width="30" height="30" viewBox="0 0 30 30" fill="none" xmlns="http://www.w3.org/2000/svg">
<rect x="0.5" y="0.5" width="29" height="29" rx="7.5" stroke="#1B4962"/>
<g clip-path="url(#clip0)">
<path d="M22.1112 7.875H7.88883C7.39909 7.875 7 8.27409 7 8.76383V10.5417C7 11.0314 7.39909 11.4305 7.88883 11.4305H22.1112C22.6009 11.4305 23 11.0314 23 10.5417V8.76383C23 8.27409 22.6009 7.875 22.1112 7.875Z" fill="#1B4962"/>
<path d="M22.1112 13.2083H7.88883C7.39909 13.2083 7 13.6074 7 14.0972V15.875C7 16.3648 7.39909 16.7638 7.88883 16.7638H22.1112C22.6009 16.7638 23 16.3648 23 15.875V14.0972C23 13.6074 22.6009 13.2083 22.1112 13.2083Z" fill="#1B4962"/>
<path d="M22.1112 18.5417H7.88883C7.39909 18.5417 7 18.9407 7 19.4305V21.2083C7 21.6981 7.39909 22.0972 7.88883 22.0972H22.1112C22.6009 22.0972 23 21.6981 23 21.2083V19.4305C23 18.9407 22.6009 18.5417 22.1112 18.5417Z" fill="#1B4962"/>
</g>
<defs>
<clipPath id="clip0">
<rect width="16" height="16" fill="white" transform="translate(7 7)"/>
</clipPath>
</defs>
</svg>
