<svg width="15" height="20" viewBox="0 0 15 20" fill="none" xmlns="http://www.w3.org/2000/svg">
<path d="M6.90264 20H8.07096L11.5219 15.3794C12.9786 13.4736 14.9736 10.8635 14.9736 7.48676C14.9736 3.35855 11.6151 0 7.48684 0C3.35862 0 0 3.35855 0 7.48676C0 10.8635 1.99497 13.4736 3.45171 15.3794L6.90264 20ZM3.9219 7.48676C3.9219 5.52107 5.52114 3.92183 7.48684 3.92183C9.45253 3.92183 11.0518 5.52107 11.0518 7.48676C11.0518 9.45246 9.45253 11.0517 7.48684 11.0517C5.52114 11.0517 3.9219 9.45253 3.9219 7.48676Z" fill="black"/>
<path d="M8.80624 8.03392C9.10729 7.30765 8.76257 6.47485 8.0363 6.17381C7.31003 5.87277 6.47723 6.21749 6.17619 6.94376C5.87515 7.67003 6.21986 8.50283 6.94613 8.80387C7.6724 9.10491 8.5052 8.7602 8.80624 8.03392Z" fill="black"/>
</svg>
