<svg width="30" height="30" viewBox="0 0 30 30" fill="none" xmlns="http://www.w3.org/2000/svg">
<g clip-path="url(#clip0)">
<path d="M13.2745 29.9991C9.74244 29.2075 7.09072 25.8572 7.09072 22.0898C7.09072 17.9485 13.6482 11.5547 14.3966 10.8466L15.0009 10.2733L15.6052 10.8466C16.3535 11.5547 22.911 17.9485 22.911 22.0898C22.911 25.8582 20.2579 29.2095 16.7246 30C19.368 29.5115 23.9296 27.7949 26.2679 23.9275C28.5887 20.0883 28.1235 14.9562 24.8851 8.791L24.0972 7.2924L22.4432 10.5154C21.6965 9.60557 20.8365 8.82533 19.9962 8.06314C18.2882 6.51305 16.6737 4.9902 15.8343 2.48051L15.0009 0L14.1674 2.48051C13.328 4.9902 11.7135 6.51305 10.0055 8.06314C9.16523 8.82533 8.30519 9.60551 7.55847 10.5154L5.90449 7.2924L5.11658 8.791C1.87904 14.9545 1.41386 20.0848 3.73212 23.9241C6.06761 27.7912 10.6308 29.5095 13.2745 29.9991Z" fill="#FF4848"/>
<path d="M21.1523 22.0897C21.1523 19.4856 17.1509 14.872 15 12.7134C12.8491 14.8737 8.84766 19.4882 8.84766 22.0897C8.84766 25.4818 11.6079 28.4439 15 28.4439C18.392 28.4439 21.1523 25.4818 21.1523 22.0897ZM15.2051 21.2348C16.1149 21.4537 17.6367 21.8194 17.6367 23.8475C17.6367 24.9919 16.8997 25.9583 15.8789 26.3224V27.3632H14.1211V26.3224C13.1003 25.9583 12.3633 24.9919 12.3633 23.8475H14.1211C14.1211 24.3325 14.5151 24.7264 15 24.7264C15.4849 24.7264 15.8789 24.3325 15.8789 23.8475C15.8789 23.2707 15.7673 23.178 14.7949 22.9446C13.8851 22.7258 12.3633 22.3601 12.3633 20.3319C12.3633 19.1876 13.1003 18.2211 14.1211 17.8571V16.8163H15.8789V17.8571C16.8997 18.2211 17.6367 19.1876 17.6367 20.3319H15.8789C15.8789 19.847 15.4849 19.453 15 19.453C14.5151 19.453 14.1211 19.847 14.1211 20.3319C14.1211 20.9087 14.2326 21.0014 15.2051 21.2348Z" fill="#FF4848"/>
</g>
<defs>
<clipPath id="clip0">
<rect width="30" height="30" fill="white"/>
</clipPath>
</defs>
</svg>
