<svg width="30" height="30" viewBox="0 0 30 30" fill="none" xmlns="http://www.w3.org/2000/svg">
<rect width="30" height="30" rx="8" fill="#FF4848"/>
<g clip-path="url(#clip0)">
<path d="M14.886 14.7072C15.9448 14.7072 16.8617 14.3275 17.6108 13.5782C18.36 12.8291 18.7397 11.9125 18.7397 10.8535C18.7397 9.79491 18.36 8.87817 17.6107 8.12878C16.8614 7.37976 15.9447 7 14.886 7C13.827 7 12.9104 7.37976 12.1613 8.1289C11.4121 8.87804 11.0322 9.79479 11.0322 10.8535C11.0322 11.9125 11.4121 12.8292 12.1614 13.5783C12.9106 14.3274 13.8274 14.7072 14.886 14.7072Z" fill="#F7FBFF"/>
<path d="M21.629 19.3032C21.6074 18.9914 21.5637 18.6513 21.4993 18.2922C21.4344 17.9304 21.3508 17.5883 21.2507 17.2757C21.1473 16.9526 21.0067 16.6335 20.8328 16.3277C20.6524 16.0103 20.4405 15.734 20.2027 15.5066C19.9541 15.2686 19.6496 15.0774 19.2976 14.9378C18.9467 14.799 18.5579 14.7287 18.1421 14.7287C17.9787 14.7287 17.8208 14.7957 17.5157 14.9944C17.328 15.1168 17.1084 15.2584 16.8632 15.415C16.6537 15.5486 16.3697 15.6737 16.019 15.787C15.6769 15.8977 15.3294 15.9538 14.9865 15.9538C14.6437 15.9538 14.2964 15.8977 13.9538 15.787C13.6035 15.6738 13.3196 15.5487 13.1102 15.4151C12.8674 15.26 12.6477 15.1184 12.4571 14.9942C12.1525 14.7956 11.9944 14.7286 11.831 14.7286C11.415 14.7286 11.0264 14.799 10.6756 14.938C10.3238 15.0772 10.0193 15.2685 9.77038 15.5067C9.53271 15.7342 9.32067 16.0105 9.1405 16.3277C8.96679 16.6335 8.82617 16.9525 8.72265 17.2758C8.62268 17.5885 8.53906 17.9304 8.47412 18.2922C8.40979 18.6508 8.36609 18.991 8.34448 19.3035C8.32324 19.6097 8.3125 19.9274 8.3125 20.2484C8.3125 21.0836 8.578 21.7597 9.10156 22.2584C9.61865 22.7504 10.3028 23.0001 11.1349 23.0001H18.8389C19.671 23.0001 20.3549 22.7505 20.8721 22.2584C21.3958 21.7601 21.6613 21.0838 21.6613 20.2482C21.6612 19.9259 21.6503 19.6079 21.629 19.3032Z" fill="#F7FBFF"/>
</g>
<defs>
<clipPath id="clip0">
<rect width="15.9999" height="16" fill="white" transform="translate(7 7)"/>
</clipPath>
</defs>
</svg>
