<svg width="20" height="20" viewBox="0 0 20 20" fill="none" xmlns="http://www.w3.org/2000/svg">
<path d="M1.36385 16.8179H4.54573V19.5455C4.54573 19.6782 4.58819 19.7869 4.67361 19.8718C4.75881 19.9573 4.86772 20 5.0004 20H7.37243C7.49554 20 7.60206 19.9573 7.69204 19.8718C7.78202 19.7869 7.82687 19.6782 7.82687 19.5455V16.8179H15.0001C15.1325 16.8179 15.2415 16.7757 15.3269 16.6902C15.4124 16.6048 15.4548 16.4961 15.4548 16.3634V14.5452C15.4548 14.4132 15.4124 14.3038 15.3269 14.2189C15.2417 14.1334 15.1325 14.0907 15.0001 14.0907H7.82663V12.4145H12.6562C14.55 12.4145 16.0957 11.8374 17.294 10.6816C18.4917 9.52704 19.0909 8.03561 19.0909 6.20724C19.0909 4.38009 18.4917 2.88861 17.294 1.73286C16.0959 0.578248 14.55 0 12.6562 0H5.00016C4.86745 0 4.75877 0.0426953 4.67338 0.127654C4.58819 0.213084 4.54549 0.322469 4.54549 0.454436V9.38931H1.36385C1.23118 9.38931 1.12246 9.4342 1.03707 9.52414C0.951914 9.61412 0.90918 9.72064 0.90918 9.84371V11.96C0.90918 12.0927 0.95164 12.2014 1.03707 12.2868C1.1225 12.3723 1.23094 12.4144 1.36385 12.4144H4.54573V14.0906H1.36385C1.23118 14.0906 1.12246 14.1334 1.03707 14.2189C0.951914 14.3038 0.90918 14.413 0.90918 14.5451V16.3634C0.90918 16.4961 0.95164 16.6048 1.03707 16.6902C1.12246 16.7757 1.23114 16.8179 1.36385 16.8179ZM7.82663 3.02587H12.3721C13.3758 3.02587 14.1853 3.31933 14.801 3.90644C15.4164 4.49359 15.7243 5.26089 15.7243 6.20747C15.7243 7.15453 15.4164 7.92207 14.801 8.50851C14.1853 9.09613 13.3757 9.38958 12.3721 9.38958H7.82663V3.02587Z" fill="#1B4962"/>
</svg>
