<svg width="20" height="20" viewBox="0 0 20 20" fill="none" xmlns="http://www.w3.org/2000/svg">
<path d="M1.36287 16.8179H4.54475V19.5455C4.54475 19.6782 4.58721 19.7869 4.67264 19.8718C4.75783 19.9573 4.86675 20 4.99942 20H7.37146C7.49456 20 7.60109 19.9573 7.69106 19.8718C7.78104 19.7869 7.82589 19.6782 7.82589 19.5455V16.8179H14.9992C15.1316 16.8179 15.2405 16.7757 15.3259 16.6902C15.4114 16.6048 15.4538 16.4961 15.4538 16.3634V14.5452C15.4538 14.4132 15.4114 14.3038 15.3259 14.2189C15.2408 14.1334 15.1316 14.0907 14.9992 14.0907H7.82566V12.4145H12.6552C14.549 12.4145 16.0947 11.8374 17.293 10.6816C18.4908 9.52704 19.09 8.03561 19.09 6.20724C19.09 4.38009 18.4908 2.88861 17.293 1.73286C16.095 0.578248 14.549 0 12.6552 0H4.99918C4.86647 0 4.75779 0.0426953 4.6724 0.127654C4.58721 0.213084 4.54451 0.322469 4.54451 0.454436V9.38931H1.36287C1.2302 9.38931 1.12148 9.4342 1.03609 9.52414C0.950938 9.61412 0.908203 9.72064 0.908203 9.84371V11.96C0.908203 12.0927 0.950663 12.2014 1.03609 12.2868C1.12152 12.3723 1.22997 12.4144 1.36287 12.4144H4.54475V14.0906H1.36287C1.2302 14.0906 1.12148 14.1334 1.03609 14.2189C0.950938 14.3038 0.908203 14.413 0.908203 14.5451V16.3634C0.908203 16.4961 0.950663 16.6048 1.03609 16.6902C1.12148 16.7757 1.23016 16.8179 1.36287 16.8179ZM7.82566 3.02587H12.3711C13.3748 3.02587 14.1843 3.31933 14.8 3.90644C15.4155 4.49359 15.7233 5.26089 15.7233 6.20747C15.7233 7.15453 15.4155 7.92207 14.8 8.50851C14.1843 9.09613 13.3747 9.38958 12.3711 9.38958H7.82566V3.02587Z" fill="#FF4848"/>
</svg>
