<svg width="10" height="4" viewBox="0 0 10 4" fill="none" xmlns="http://www.w3.org/2000/svg">
<path d="M3.01632 2.57421C5.91376 1.96231 8.50476 2.18038 8.94545 2.53746C8.90015 2.79056 9.04793 3.04388 9.29939 3.12442C9.35216 3.14123 9.40558 3.14942 9.45813 3.14942C9.67848 3.14942 9.88294 3.00848 9.95373 2.7875C10.0575 2.46304 9.98485 2.13031 9.75383 1.87507C8.82844 0.850768 5.05796 1.07923 2.80104 1.55602C1.58836 1.81212 1.1664 1.70885 1.05032 1.66064C1.05431 1.64796 1.05929 1.635 1.06456 1.62489C1.20265 1.37748 1.11734 1.06413 0.871283 0.921201C0.622667 0.777059 0.304329 0.861379 0.159831 1.10992C-0.00738534 1.39799 -0.102602 1.87272 0.179487 2.2627C0.569753 2.80153 1.47085 2.9008 3.01632 2.57421Z" fill="#1B4962"/>
</svg>
