<svg width="30" height="30" viewBox="0 0 30 30" fill="none" xmlns="http://www.w3.org/2000/svg">
<rect x="0.5" y="0.5" width="29" height="29" rx="3.5" stroke="#FF4848"/>
<path d="M21.5958 15.8565C21.2725 15.4482 21.365 15.2665 21.5958 14.9015C21.6 14.8973 24.2692 11.209 24.5442 9.95817L24.5458 9.95734C24.6825 9.5015 24.5458 9.1665 23.885 9.1665H21.6983C21.1417 9.1665 20.885 9.454 20.7475 9.77567C20.7475 9.77567 19.6342 12.4407 18.0592 14.1682C17.5508 14.6673 17.3158 14.8273 17.0383 14.8273C16.9017 14.8273 16.6892 14.6673 16.6892 14.2115V9.95734C16.6892 9.41067 16.5333 9.1665 16.0725 9.1665H12.6342C12.285 9.1665 12.0775 9.4215 12.0775 9.659C12.0775 10.1773 12.865 10.2965 12.9467 11.7548V14.919C12.9467 15.6123 12.8208 15.7398 12.5417 15.7398C11.7983 15.7398 9.99417 13.064 8.925 10.0015C8.70917 9.40734 8.49833 9.16734 7.9375 9.16734H5.75C5.12583 9.16734 5 9.45484 5 9.7765C5 10.3448 5.74333 13.1707 8.45667 16.904C10.265 19.4523 12.8117 20.8332 15.1283 20.8332C16.5208 20.8332 16.6908 20.5265 16.6908 19.999C16.6908 17.564 16.565 17.334 17.2625 17.334C17.5858 17.334 18.1425 17.494 19.4425 18.7232C20.9283 20.1807 21.1725 20.8332 22.0042 20.8332H24.1908C24.8142 20.8332 25.13 20.5265 24.9483 19.9215C24.5325 18.649 21.7225 16.0315 21.5958 15.8565Z" fill="black"/>
</svg>
