<svg width="105" height="140" viewBox="0 0 105 140" fill="none" xmlns="http://www.w3.org/2000/svg">
<path d="M56.9805 112.577L33.6602 99.8934L81.6648 93.1503L104.985 105.833L56.9805 112.577Z" fill="#1B4962"/>
<path d="M23.3203 139.89L0 127.207L0.0440016 106.45L23.3533 119.133L23.3203 139.89Z" fill="#1B4962"/>
<path d="M75.2297 39.4145C74.6531 38.9214 74.0263 38.49 73.3597 38.1275L50.0504 25.4443C50.7135 25.8069 51.3366 26.2383 51.9094 26.7314C54.5934 29.0414 55.9464 32.6494 55.9354 37.5775C55.9354 38.2375 55.9354 38.8975 55.8474 39.5465C55.8474 39.7555 55.7924 39.9645 55.7705 40.1735C55.7705 40.6135 55.6714 41.0535 55.5944 41.4936L55.4624 42.2086C55.3744 42.6266 55.2864 43.0336 55.1874 43.4516C55.1214 43.6826 55.0664 43.9246 54.9894 44.1556C54.8684 44.5846 54.7364 45.0026 54.5824 45.4316C54.5164 45.6406 54.4504 45.8496 54.3734 46.0586C54.2964 46.2676 54.1204 46.6636 53.9994 46.9716C53.8784 47.2796 53.7794 47.4996 53.6584 47.7636C53.5374 48.0276 53.3614 48.3576 53.2184 48.6547C53.0754 48.9517 52.9654 49.1717 52.8224 49.4247C52.5034 50.0187 52.1624 50.6017 51.7884 51.1957C51.4144 51.7897 51.0624 52.2957 50.6884 52.8897C50.5234 53.1427 50.3144 53.4067 50.1384 53.6597C49.9624 53.9127 49.6324 54.3637 49.3464 54.7597L48.6423 55.6507L47.7953 56.7508C47.5423 57.0588 47.2563 57.3888 46.9923 57.7188L46.0243 58.8188L45.1223 59.9188C44.7593 60.3258 44.4293 60.7218 44.0223 61.1508L42.0753 63.3509L41.4703 63.9999C40.9532 64.5719 40.3702 65.0999 39.8642 65.7269L39.2152 66.4199C38.4672 67.2119 37.6972 68.0259 36.8832 68.8619L0.0546875 106.493L23.364 119.177L60.2035 81.5451L62.5355 79.1031L63.1845 78.4101L64.7796 76.694L65.3846 76.034L67.3206 73.889L68.4206 72.613L69.3006 71.612C69.6636 71.183 69.9936 70.776 70.3346 70.3579L71.0607 69.4779C71.3797 69.0819 71.6547 68.7189 71.9407 68.3779L72.6227 67.5199L73.3707 66.4859C73.5687 66.2219 73.7777 65.9469 73.9537 65.6829C74.3717 65.0999 74.7457 64.5829 75.0537 63.9889C75.3617 63.3949 75.7797 62.8118 76.0987 62.2178C76.1249 62.1799 76.147 62.1394 76.1647 62.0968C76.2857 61.8878 76.3847 61.6678 76.4837 61.4588L76.9347 60.5568C77.0557 60.2928 77.1547 60.0288 77.2647 59.7648C77.3747 59.5008 77.5287 59.1598 77.6387 58.8518L77.7158 58.6868C77.7708 58.5328 77.8038 58.3788 77.8588 58.2248C78.0018 57.8068 78.1448 57.3778 78.2658 56.9488C78.3318 56.7178 78.3978 56.4758 78.4528 56.2448C78.5628 55.8268 78.6508 55.4197 78.7278 55.0017C78.7278 54.7707 78.8268 54.5287 78.8708 54.2977C78.9368 53.8467 78.9918 53.4067 79.0468 52.9667C79.0468 52.7577 79.1018 52.5487 79.1128 52.3397C79.1678 51.6907 79.2008 51.0307 79.2008 50.3707C79.2448 45.3693 77.9211 41.7172 75.2297 39.4145Z" fill="#1B4962"/>
<path d="M47.62 19.1853C48.544 18.6573 49.501 18.1623 50.4801 17.7003C51.2831 17.3153 52.1081 16.9633 52.9551 16.6003L53.5051 16.3803C54.3484 16.0503 55.2174 15.7423 56.1121 15.4563L56.4861 15.3353C57.3221 15.0823 58.1692 14.8403 59.0382 14.6093L59.5222 14.4773C60.4572 14.2463 61.4142 14.0263 62.3822 13.8393L63.0092 13.7183C64.0212 13.5313 65.0332 13.3553 66.0893 13.2013C67.1453 13.0472 68.1023 12.9593 69.0923 12.8713H69.8403C70.7753 12.7943 71.7103 12.7502 72.6124 12.7392H72.7223C73.6684 12.7392 74.5814 12.7392 75.4834 12.8052H76.1654C77.0014 12.8712 77.8154 12.9372 78.6184 13.0472H78.8164C79.6745 13.1683 80.4995 13.3223 81.3245 13.4983L81.9405 13.6413C82.7215 13.8283 83.4915 14.0263 84.2395 14.2683L84.4595 14.3343C85.2625 14.5983 86.0435 14.8843 86.8025 15.2143H86.8905C87.7192 15.5663 88.5222 15.933 89.2996 16.3143L65.9793 3.63112L64.9562 3.10311C64.5016 2.88311 64.0396 2.67411 63.5702 2.47611H63.4932C62.7232 2.1461 61.9422 1.8601 61.1392 1.5961L60.9302 1.53009C60.4022 1.35409 59.8302 1.20009 59.3242 1.06809C59.0932 1.00209 58.8622 0.958084 58.6202 0.903083L58.0042 0.760085C57.1901 0.584082 56.3541 0.43008 55.4961 0.309078H55.3091C54.5061 0.199077 53.6811 0.133075 52.8451 0.0670738H52.1631C51.2611 0.0670738 50.3481 -0.00992455 49.413 0.0010756H49.292C48.39 0.0010756 47.466 0.0560728 46.52 0.122074L45.772 0.188076C44.793 0.276077 43.792 0.375078 42.7689 0.51808C41.7459 0.661082 40.7009 0.848086 39.6889 1.03509L39.0619 1.15609C38.0939 1.34309 37.1369 1.5631 36.2019 1.7941L35.7178 1.9261C34.8488 2.1461 34.0018 2.39911 33.1768 2.65211L32.7918 2.77311C31.9118 3.05912 31.0428 3.36712 30.1958 3.69712L29.6348 3.91713C28.8207 4.24714 28.0068 4.58814 27.2257 5.01715H27.1597C26.1807 5.47915 25.2347 5.97416 24.3107 6.50216C24.0577 6.64517 23.8267 6.81016 23.5737 6.95317C22.9137 7.34917 22.2647 7.75618 21.6267 8.18519L21.3846 8.33919C20.7576 8.77919 20.1306 9.2302 19.5256 9.7032C18.9206 10.1762 18.1506 10.8032 17.4576 11.4302L17.1166 11.7272L16.8416 11.9692C16.2806 12.4752 15.7416 13.0143 15.1476 13.5643L14.7846 13.9273C14.1245 14.5763 13.4646 15.2583 12.8045 15.9623L12.5405 16.2593L11.7045 17.1833L10.7805 18.2833C10.6375 18.4593 10.4835 18.6243 10.3405 18.7893C9.69149 19.5813 9.03149 20.3954 8.38248 21.2314L7.94246 21.8034C7.40345 22.5074 6.84246 23.2334 6.33645 24.0034L5.83043 24.7074L5.50044 25.1584C5.12644 25.6974 4.75243 26.2584 4.40043 26.8084L3.71841 27.8095C3.0254 28.9095 2.3434 29.9215 1.65039 31.0325L24.9707 43.7157C25.6527 42.6157 26.3457 41.5156 27.0387 40.4926C27.2587 40.1516 27.4897 39.8216 27.7207 39.4806C28.1938 38.7766 28.6778 38.0726 29.1618 37.3906C29.3268 37.1486 29.5028 36.9176 29.6678 36.6866C30.1958 35.9496 30.7678 35.2236 31.2738 34.4865L31.7028 33.9145C32.3628 33.0785 33.0118 32.2645 33.6718 31.4835L34.1118 30.9665C34.6948 30.2845 35.2778 29.6135 35.8608 28.9645C35.9599 28.8765 36.0479 28.7665 36.1359 28.6785C36.7849 27.9635 37.4449 27.2814 38.1049 26.6324L38.4679 26.2694C39.1279 25.6314 39.7769 25.0264 40.4369 24.4324L40.7889 24.1354C41.4819 23.5304 42.1639 22.9474 42.8569 22.4084C43.55 21.8694 44.243 21.3744 44.958 20.8904C45.673 20.4064 46.245 20.0543 46.905 19.6583L47.62 19.1853Z" fill="#1B4962"/>
<path d="M74.9339 95.0864L56.9817 112.687L104.986 105.944V128.527L23.3652 140V119.243L60.2047 81.6112C67.3988 74.1751 72.3672 68.3084 75.11 64.011C77.7844 59.9701 79.2253 55.2384 79.257 50.3928C79.257 45.4647 77.9187 41.8493 75.2419 39.5466C72.5469 37.2476 68.9829 36.4006 64.5168 37.0276C60.3637 37.6274 56.486 39.459 53.3847 42.2857C50.0846 45.219 46.2712 49.8391 41.9445 56.1459L24.9713 43.7487C30.7867 34.2666 36.7378 27.1311 42.8245 22.3424C48.9113 17.5537 56.659 14.4993 66.0678 13.1793C77.508 11.5733 86.6968 13.6156 93.6342 19.3064C100.572 24.9971 104.029 33.4086 104.007 44.5407C104.074 51.7842 102.522 58.9511 99.4643 65.518C97.819 68.8725 95.8125 72.0373 93.4802 74.9561C90.8622 78.3368 88.2185 81.4609 85.5491 84.3282C82.887 87.1993 79.356 90.7633 74.9339 95.0864Z" fill="url(#paint0_linear)"/>
<path d="M74.9339 95.0864L56.9817 112.687L104.986 105.944V128.527L23.3652 140V119.243L60.2047 81.6112C67.3988 74.1751 72.3672 68.3084 75.11 64.011C77.7844 59.9701 79.2253 55.2384 79.257 50.3928C79.257 45.4647 77.9187 41.8493 75.2419 39.5466C72.5469 37.2476 68.9829 36.4006 64.5168 37.0276C60.3637 37.6274 56.486 39.459 53.3847 42.2857C50.0846 45.219 46.2712 49.8391 41.9445 56.1459L24.9713 43.7487C30.7867 34.2666 36.7378 27.1311 42.8245 22.3424C48.9113 17.5537 56.659 14.4993 66.0678 13.1793C77.508 11.5733 86.6968 13.6156 93.6342 19.3064C100.572 24.9971 104.029 33.4086 104.007 44.5407C104.074 51.7842 102.522 58.9511 99.4643 65.518C97.819 68.8725 95.8125 72.0373 93.4802 74.9561C90.8622 78.3368 88.2185 81.4609 85.5491 84.3282C82.887 87.1993 79.356 90.7633 74.9339 95.0864Z" fill="#FF4848"/>
<path d="M41.9322 56.0029L18.6119 43.3308L1.63867 30.9336L24.959 43.6168L41.9322 56.0029Z" fill="#1B4962"/>
<defs>
<linearGradient id="paint0_linear" x1="15155.1" y1="9192.11" x2="15155.1" y2="24074.3" gradientUnits="userSpaceOnUse">
<stop stop-color="#75E8E1"/>
<stop offset="0.52" stop-color="#563E8C"/>
<stop offset="1" stop-color="#FB8ED1"/>
</linearGradient>
</defs>
</svg>
