<svg width="107" height="140" viewBox="0 0 107 140" fill="none" xmlns="http://www.w3.org/2000/svg">
<path d="M69.9008 56.6105L93.2343 69.3068C91.446 68.3296 89.5647 67.5328 87.6184 66.9283C84.0422 65.8541 80.3395 65.258 76.6068 65.1555L53.2402 52.4591C56.9729 52.5615 60.6756 53.1577 64.2518 54.232C66.2085 54.8371 68.1006 55.6337 69.9008 56.6105Z" fill="#FB8ED1"/>
<path d="M76.5738 65.1555L53.2402 52.4591C56.4091 52.558 59.5582 52.9973 62.6331 53.7695L85.9777 66.4659C82.892 65.6914 79.7317 65.2521 76.5518 65.1555" fill="#1B4962"/>
<path d="M85.9994 66.4659L62.6328 53.7695C63.1834 53.9164 63.723 54.0705 64.2515 54.232C65.7913 54.7043 67.2901 55.3009 68.7332 56.0159L92.0778 68.7123C90.6339 67.9989 89.1353 67.4024 87.5961 66.9284C87.0676 66.7669 86.528 66.6127 85.9774 66.4659" fill="#1B4962"/>
<path d="M92.1004 68.7124L68.7559 56.016C69.1413 56.2032 69.5267 56.4014 69.857 56.6106L93.1906 69.307C92.8162 69.0978 92.4418 68.8996 92.0894 68.7124" fill="#1B4962"/>
<path d="M81.1768 105.381L81.309 105.062L81.3861 104.863C81.4631 104.654 81.5182 104.445 81.5843 104.225C81.6503 104.004 81.7164 103.839 81.7715 103.63C81.8265 103.421 81.9146 103.057 81.9807 102.76C82.0468 102.463 82.0688 102.386 82.1018 102.187C82.1348 101.989 82.2009 101.516 82.2339 101.185C82.267 100.855 82.289 100.844 82.3 100.679C82.3 100.161 82.3661 99.6438 82.3661 99.1152C82.3661 93.9618 80.4831 90.4932 76.6841 88.401L53.3505 75.6495C57.1385 77.7417 59.0325 81.1553 59.0325 86.3638C59.0325 86.8924 59.0325 87.465 58.9554 87.9275C58.9554 88.0926 58.9554 88.2578 58.9004 88.434C58.8453 88.6102 58.8233 89.1057 58.7572 89.4361C58.6912 89.7664 58.6801 89.8214 58.6361 90.0086C58.5921 90.1958 58.515 90.6033 58.4379 90.8786C58.3608 91.1539 58.3168 91.275 58.2507 91.4732C58.1846 91.6714 58.0745 92.0348 57.9644 92.3101C57.9644 92.4092 57.8873 92.5193 57.8433 92.6294C57.7001 92.9487 57.557 93.2681 57.4028 93.5874L57.2596 93.8847C57.1716 94.0499 57.0724 94.2151 56.9733 94.3802C56.7861 94.7106 56.5879 95.0299 56.3677 95.3493C56.1475 95.6686 56.1255 95.6906 56.0043 95.8668C55.8832 96.043 55.5749 96.4284 55.3436 96.7037C55.1124 96.979 54.9032 97.2323 54.6499 97.4855C54.3966 97.7388 53.9562 98.1792 53.5487 98.5096L53.2955 98.7188L52.4476 99.4015L52.1173 99.6438C51.875 99.82 51.6327 99.9741 51.3795 100.139L50.8179 100.492L50.0581 100.91L49.4744 101.207C49.2102 101.34 48.9349 101.45 48.6596 101.56C48.3843 101.67 48.2632 101.747 48.054 101.824L47.151 102.132L46.5564 102.331C46.215 102.43 45.8627 102.507 45.5103 102.595C45.3341 102.595 45.1579 102.694 44.9707 102.727C44.4422 102.844 43.8916 102.944 43.319 103.024C42.7133 103.112 42.1187 103.167 41.5241 103.223H40.9845L39.7182 103.289H39.1676C38.6721 103.289 38.1876 103.289 37.7031 103.289H37.4608C36.9102 103.289 36.3596 103.223 35.8201 103.168L35.3686 103.112L34.1794 102.947L33.6838 102.859C33.2654 102.782 32.847 102.694 32.4505 102.595L32.1202 102.529L31.019 102.209C30.8428 102.154 30.6557 102.11 30.4795 102.044C29.9509 101.868 29.3783 101.67 28.9158 101.461C28.4533 101.251 28.0019 101.053 27.5504 100.833C27.0989 100.613 26.8016 100.47 26.4492 100.26L49.8158 113.089C50.1572 113.276 50.4985 113.452 50.8509 113.618H50.939C51.4015 113.838 51.853 114.058 52.3044 114.245C52.7559 114.432 53.3505 114.653 53.8791 114.829C54.0553 114.895 54.2315 114.939 54.4187 114.994C54.6059 115.049 55.0683 115.203 55.4097 115.291H55.5088L55.8282 115.368L57.0614 115.622L57.568 115.71C57.9534 115.776 58.3498 115.831 58.7462 115.875L59.2087 115.93C59.7483 115.93 60.3099 116.029 60.8494 116.051H61.0807C61.5652 116.051 62.0607 116.051 62.5562 116.051H63.0958L64.3731 115.985H64.9017C65.4963 115.985 66.102 115.875 66.7076 115.787C67.3133 115.699 67.8088 115.611 68.3594 115.489C68.5355 115.489 68.7117 115.401 68.8879 115.357C69.2403 115.28 69.5926 115.192 69.934 115.093C70.2754 114.994 70.3414 114.961 70.5396 114.895L71.4426 114.587L72.0482 114.333C72.2795 114.234 72.5107 114.146 72.731 114.036L72.8631 113.97C73.0613 113.882 73.2485 113.772 73.4357 113.673C73.6229 113.573 73.9532 113.397 74.2065 113.254L74.7571 112.902C74.9333 112.792 75.1094 112.693 75.2636 112.582L75.5059 112.406L75.8252 112.164C76.1225 111.944 76.4088 111.712 76.6841 111.481L76.9264 111.272L77.0255 111.184C77.3558 110.887 77.6862 110.578 77.9945 110.248C78.1487 110.083 78.3138 109.918 78.457 109.741C78.6001 109.565 78.6111 109.554 78.6882 109.466C78.9194 109.191 79.1287 108.916 79.3379 108.629C79.415 108.53 79.5031 108.431 79.5802 108.321L79.7123 108.112C79.9215 107.792 80.1197 107.473 80.3069 107.143L80.5271 106.801C80.5461 106.747 80.572 106.695 80.6042 106.647C80.6042 106.548 80.6923 106.449 80.7474 106.35C80.9016 105.997 81.0447 105.667 81.1768 105.381Z" fill="#1B4962"/>
<path d="M35.6335 134.705L12.2889 122.008C7.64236 119.452 3.48246 116.098 0 112.098L23.3446 124.794C26.827 128.794 30.9869 132.149 35.6335 134.705Z" fill="#7663A8"/>
<path d="M35.6335 134.705L12.2889 122.008C7.64236 119.452 3.48246 116.098 0 112.098L23.3446 124.794C26.827 128.794 30.9869 132.149 35.6335 134.705Z" fill="#1B4962"/>
<path d="M23.3446 124.75L0 112.054L16.7486 92.4863L40.0822 105.183L23.3446 124.75Z" fill="#1B4962"/>
<path d="M50.6647 88.0817L27.3201 75.3854L23.5762 59.2094L46.9207 71.9057L50.6647 88.0817Z" fill="#1B4962"/>
<path d="M46.9207 71.9056L23.5762 59.2093L49.971 26.9012L73.3155 39.6086L46.9207 71.9056Z" fill="#1B4962"/>
<path d="M29.9618 45.6981L6.61719 33.0018L6.66123 10.472L29.9948 23.1794L29.9618 45.6981Z" fill="#1B4962"/>
<path d="M29.9957 23.1794L6.66211 10.472L81.2106 0L104.544 12.6964L29.9957 23.1794Z" fill="#1B4962"/>
<path d="M96.9232 71.6415C99.9645 73.9456 102.318 77.0376 103.728 80.5829C105.464 84.9665 106.292 89.6566 106.162 94.3694V94.7878C106.34 105.652 102.465 116.192 95.2935 124.354C88.0552 132.657 78.409 137.656 66.355 139.352C48.4428 141.877 34.1057 137.025 23.3438 124.794L40.0814 105.238C43.4642 109.089 47.6317 112.171 52.3042 114.278C56.8783 116.083 61.8586 116.605 66.7074 115.787C70.9914 115.306 74.9782 113.361 77.9943 110.281C79.4269 108.81 80.5538 107.07 81.3098 105.161C82.0658 103.252 82.436 101.212 82.3989 99.1594C82.3989 94.006 80.5159 90.5373 76.7169 88.4451C72.9179 86.3529 67.6214 85.7803 60.7832 86.7384L50.6965 88.1589L46.9526 71.9828L73.3804 39.6858L29.9617 45.6982V23.1794L104.499 12.6964V32.5173L76.5628 65.1997C80.2954 65.3022 83.9981 65.8984 87.5743 66.9725C90.9302 67.9941 94.0905 69.5724 96.9232 71.6415Z" fill="url(#paint0_linear)"/>
<path d="M96.9232 71.6415C99.9645 73.9456 102.318 77.0376 103.728 80.5829C105.464 84.9665 106.292 89.6566 106.162 94.3694V94.7878C106.34 105.652 102.465 116.192 95.2935 124.354C88.0552 132.657 78.409 137.656 66.355 139.352C48.4428 141.877 34.1057 137.025 23.3438 124.794L40.0814 105.238C43.4642 109.089 47.6317 112.171 52.3042 114.278C56.8783 116.083 61.8586 116.605 66.7074 115.787C70.9914 115.306 74.9782 113.361 77.9943 110.281C79.4269 108.81 80.5538 107.07 81.3098 105.161C82.0658 103.252 82.436 101.212 82.3989 99.1594C82.3989 94.006 80.5159 90.5373 76.7169 88.4451C72.9179 86.3529 67.6214 85.7803 60.7832 86.7384L50.6965 88.1589L46.9526 71.9828L73.3804 39.6858L29.9617 45.6982V23.1794L104.499 12.6964V32.5173L76.5628 65.1997C80.2954 65.3022 83.9981 65.8984 87.5743 66.9725C90.9302 67.9941 94.0905 69.5724 96.9232 71.6415Z" fill="#FF4848"/>
<defs>
<linearGradient id="paint0_linear" x1="23210.3" y1="8871.76" x2="23210.3" y2="22913.3" gradientUnits="userSpaceOnUse">
<stop stop-color="#75E8E1"/>
<stop offset="0.52" stop-color="#563E8C"/>
<stop offset="1" stop-color="#FB8ED1"/>
</linearGradient>
</defs>
</svg>
