<svg width="110" height="110" viewBox="0 0 110 110" fill="none" xmlns="http://www.w3.org/2000/svg">
<path d="M64.668 58.4375H84.0039V71.3281H64.668V58.4375Z" fill="#FF4848"/>
<path d="M45.332 29.0039C45.332 23.6736 49.6697 19.3359 55 19.3359C60.3303 19.3359 64.668 23.6736 64.668 29.0039V51.9922H84.0039V29.0039C84.0039 13.0109 70.993 0 55 0C39.007 0 25.9961 13.0109 25.9961 29.0039L25.9961 51.9922H45.332V29.0039Z" fill="#FF4848"/>
<path d="M25.9961 58.4375H45.332V71.3281H25.9961V58.4375Z" fill="#FF4848"/>
<path d="M55 90.6641C60.3395 90.6641 64.668 86.3356 64.668 80.9961C64.668 75.6566 60.3395 71.3281 55 71.3281C49.6605 71.3281 45.332 75.6566 45.332 80.9961C45.332 86.3356 49.6605 90.6641 55 90.6641Z" fill="#FF4848"/>
<path d="M55 90.6641C46.1162 90.6641 38.8867 97.8914 38.8867 106.777V110H71.1133V106.777C71.1133 97.8914 63.8838 90.6641 55 90.6641Z" fill="#FF4848"/>
<path d="M100.377 97.1094L83.2977 75.7603L78.2648 79.7865L86.9668 90.6641H75.8661L84.2712 109.996L90.182 107.426L85.6964 97.1094H100.377Z" fill="#FF4848"/>
<path d="M31.7352 79.7865L26.7023 75.7603L9.62308 97.1094H24.3036L19.8181 107.426L25.7288 109.996L34.134 90.6641H23.0332L31.7352 79.7865Z" fill="#FF4848"/>
</svg>
