<svg width="100" height="100" viewBox="0 0 100 100" fill="none" xmlns="http://www.w3.org/2000/svg">
<g clip-path="url(#clip0)">
<path d="M28.167 33.7918L26.792 25.5835L27.3336 25.0418L25.6253 23.2918C23.1253 20.7501 22.292 17.0834 23.3753 13.7501C23.417 13.6251 23.4586 13.5418 23.5003 13.4168L22.9586 13.3334L19.4586 5.95842C18.9586 4.87508 17.8336 4.16675 16.6253 4.16675C15.417 4.16675 14.292 4.87508 13.792 5.95842L10.3336 13.3751L2.62529 14.5834C1.50029 14.7501 0.54196 15.5834 0.16696 16.7084C-0.20804 17.7918 0.0836263 19.0418 0.91696 19.8751L6.58363 25.6668L5.25029 33.8751C5.08363 35.0835 5.58363 36.2501 6.54196 36.9168C7.08363 37.2918 7.70863 37.5001 8.33363 37.5001C8.87529 37.5001 9.41696 37.3751 9.87529 37.1251L16.7086 33.2918L23.5836 37.0418C24.6253 37.6251 25.917 37.5418 26.917 36.8751C27.8753 36.1668 28.3753 35.0001 28.167 33.7918Z" fill="#FF4848"/>
<path d="M99.8331 16.5834C99.4581 15.4584 98.4998 14.6668 97.3331 14.5001L89.6248 13.3334L86.1248 5.95842C85.6248 4.87508 84.4998 4.16675 83.2914 4.16675C82.0831 4.16675 80.9581 4.87508 80.4581 5.95842L76.9998 13.3751L76.5414 13.4584C76.5414 13.5001 76.5831 13.5418 76.5831 13.5834C77.7081 16.9168 76.9164 20.5834 74.4581 23.0834L72.5831 25.0001L73.2498 25.6668L71.9164 33.8751C71.7498 35.0835 72.2498 36.2501 73.2081 36.9168C73.7498 37.2918 74.3748 37.5001 74.9998 37.5001C75.5414 37.5001 76.0831 37.3751 76.5414 37.1251L83.3748 33.2918L90.2498 37.0418C91.2914 37.6251 92.5831 37.5418 93.5831 36.8751C94.5414 36.1668 95.0414 35.0001 94.8331 33.7918L93.4581 25.5835L99.1248 19.7501C99.9164 18.9168 100.208 17.7084 99.8331 16.5834Z" fill="#FF4848"/>
<path d="M39.1279 41.6667C38.4988 41.6667 37.8738 41.4792 37.3363 41.1001C36.3571 40.4167 35.8529 39.2292 36.0404 38.0501L37.8404 26.8L30.0613 18.8917C29.2404 18.0542 28.9571 16.8292 29.3238 15.7167C29.6904 14.6042 30.6488 13.7917 31.8071 13.6125L42.3904 11.9625L47.1196 1.80834C47.6321 0.708335 48.7279 0.00416667 49.9404 0H49.9488C51.1571 0 52.2571 0.695835 52.7738 1.7875L57.5738 11.9084L68.1654 13.4875C69.3238 13.6625 70.2863 14.4667 70.6654 15.575C71.0404 16.6834 70.7613 17.9125 69.9488 18.7542L62.2238 26.7167L64.0988 37.9501C64.2946 39.1292 63.8029 40.3209 62.8238 41.0126C61.8488 41.7084 60.5654 41.7834 59.5154 41.2042L50.0613 36.0292L40.6446 41.2709C40.1738 41.5376 39.6529 41.6667 39.1279 41.6667Z" fill="#FF4848"/>
<path d="M16.6673 70.8335C21.2697 70.8335 25.0006 67.1026 25.0006 62.5002C25.0006 57.8978 21.2697 54.1669 16.6673 54.1669C12.0649 54.1669 8.33398 57.8978 8.33398 62.5002C8.33398 67.1026 12.0649 70.8335 16.6673 70.8335Z" fill="#FF4848"/>
<path d="M27.7917 76.6668C23.5833 79.8335 20.8333 84.9168 20.8333 90.6251V91.6668H3.125C1.41667 91.6668 0 90.2501 0 88.5418V86.4585C0 80.1251 5.125 75.0001 11.4583 75.0001H21.875C24.0417 75.0001 26.0833 75.6251 27.7917 76.6668Z" fill="#FF4848"/>
<path d="M83.3333 70.8335C87.9357 70.8335 91.6666 67.1026 91.6666 62.5002C91.6666 57.8978 87.9357 54.1669 83.3333 54.1669C78.731 54.1669 75 57.8978 75 62.5002C75 67.1026 78.731 70.8335 83.3333 70.8335Z" fill="#FF4848"/>
<path d="M100.001 86.4585V88.5418C100.001 90.2501 98.584 91.6668 96.8756 91.6668H79.1673V90.6251C79.1673 84.9168 76.4173 79.8335 72.209 76.6668C73.9173 75.6251 75.959 75.0001 78.1256 75.0001H88.5423C94.8756 75.0001 100.001 80.1251 100.001 86.4585Z" fill="#FF4848"/>
<path d="M50 72.9169C56.9036 72.9169 62.5 67.3204 62.5 60.4168C62.5 53.5133 56.9036 47.9168 50 47.9168C43.0964 47.9168 37.5 53.5133 37.5 60.4168C37.5 67.3204 43.0964 72.9169 50 72.9169Z" fill="#FF4848"/>
<path d="M61.4589 79.1669H38.5423C32.2215 79.1669 27.084 84.3044 27.084 90.6252V96.8752C27.084 98.6002 28.484 100 30.209 100H69.7923C71.5173 100 72.9173 98.6002 72.9173 96.8752V90.6252C72.9173 84.3044 67.7798 79.1669 61.4589 79.1669Z" fill="#FF4848"/>
</g>
<defs>
<clipPath id="clip0">
<rect width="100" height="100" fill="white"/>
</clipPath>
</defs>
</svg>
