<svg width="110" height="110" viewBox="0 0 110 110" fill="none" xmlns="http://www.w3.org/2000/svg">
<g clip-path="url(#clip0)">
<path d="M27.4133 62.4379H82.9415V64.9433H27.4133V62.4379Z" fill="#FF4848"/>
<path d="M27.4133 71.9744L50.6573 89.6036C51.0681 89.9152 51.3098 90.4014 51.3098 90.9161V110L59.045 105.311V90.9161C59.045 90.4005 59.2858 89.9152 59.6966 89.6036L82.9415 71.9744V68.2374H27.4133V71.9744Z" fill="#FF4848"/>
<path d="M42.8009 6.27007H42.8496C44.1492 6.26915 45.2016 5.21679 45.2025 3.91719V2.35289C45.2016 1.0542 44.1492 0.00183819 42.8496 0H42.8009C41.5022 0.00183819 40.4498 1.0542 40.448 2.35289V3.91719C40.4498 5.21587 41.5022 6.26915 42.8009 6.27007Z" fill="#FF4848"/>
<path d="M67.5062 6.27007H67.5549C68.8545 6.26915 69.9069 5.21679 69.9078 3.91719V2.35289C69.9069 1.0542 68.8545 0.00183819 67.5549 0H67.5062C66.2075 0.00183819 65.1552 1.0542 65.1533 2.35289V3.91719C65.1552 5.21587 66.2075 6.26915 67.5062 6.27007Z" fill="#FF4848"/>
<path d="M79.7099 13.7304H79.7568C81.3156 13.7285 82.5784 12.4657 82.5803 10.9069V9.15604C82.5784 7.59726 81.3156 6.33442 79.7568 6.33258H79.7099C78.1512 6.33442 76.8883 7.59726 76.8865 9.15604V10.9069C76.8883 12.4657 78.1512 13.7285 79.7099 13.7304Z" fill="#FF4848"/>
<path d="M84.8688 20.301H84.5683L83.2806 22.3221C82.879 22.9535 82.0537 23.1612 81.4011 22.7954L79.8377 21.9214L78.4076 22.7697C78.0841 22.9664 77.6953 23.0243 77.3286 22.9315C76.9619 22.8386 76.6475 22.6024 76.4564 22.2761L75.3001 20.2992H74.8966C74.0446 20.2992 73.2322 20.6604 72.6614 21.2927C72.0897 21.925 71.8122 22.7697 71.8986 23.6171C71.9032 23.664 71.9059 23.7108 71.9059 23.7586V31.7006L75.1779 36.1637C75.3424 36.3879 75.4371 36.6554 75.4499 36.933L76.2128 53.4105C76.2266 54.0263 76.7312 54.5189 77.3479 54.5189H82.4406C83.0518 54.5217 83.5555 54.0383 83.5766 53.4271L84.3404 36.9357C84.3532 36.66 84.4461 36.3935 84.6087 36.1701L87.8587 31.7033V23.7605C87.8587 23.7127 87.8614 23.6658 87.866 23.618C87.9524 22.7706 87.6748 21.926 87.1041 21.2936C86.5324 20.6613 85.7208 20.301 84.8688 20.301Z" fill="#FF4848"/>
<path d="M55.0046 13.7304H55.0515C56.6103 13.7285 57.8731 12.4657 57.8749 10.9069V9.15604C57.8731 7.59726 56.6103 6.33442 55.0515 6.33258H55.0046C53.4458 6.33442 52.183 7.59726 52.1812 9.15604V10.9069C52.183 12.4657 53.4458 13.7285 55.0046 13.7304Z" fill="#FF4848"/>
<path d="M47.2006 23.7605V31.7033L50.4726 36.1664C50.6371 36.3898 50.7317 36.6581 50.7446 36.9357L51.5075 53.4123C51.5222 54.0291 52.0258 54.5217 52.6425 54.5208H57.7362C58.3483 54.5235 58.851 54.0383 58.8713 53.4271L59.635 36.9357C59.6479 36.66 59.7407 36.3934 59.9034 36.1701L63.1533 31.7033V23.7605C63.1533 23.7136 63.1561 23.6658 63.1607 23.6189C63.2471 22.7706 62.9695 21.926 62.3987 21.2945C61.8271 20.6622 61.0155 20.301 60.1635 20.301H59.862L58.5753 22.3221C58.1727 22.9526 57.3483 23.1603 56.6948 22.7954L55.1324 21.9223L53.7023 22.7706C53.3787 22.9673 52.99 23.0252 52.6232 22.9324C52.2565 22.8395 51.9422 22.6033 51.751 22.2771L50.5948 20.3001H50.1922C49.3393 20.3001 48.5277 20.6613 47.9561 21.2936C47.3844 21.925 47.1077 22.7697 47.1932 23.618C47.1978 23.6649 47.2006 23.7127 47.2006 23.7605Z" fill="#FF4848"/>
<path d="M30.2993 13.7304H30.3462C31.905 13.7285 33.1678 12.4657 33.1696 10.9069V9.15604C33.1678 7.59726 31.905 6.33442 30.3462 6.33258H30.2993C28.7405 6.33442 27.4777 7.59726 27.4758 9.15604V10.9069C27.4777 12.4657 28.7405 13.7285 30.2993 13.7304Z" fill="#FF4848"/>
<path d="M33.0299 54.5208C33.6421 54.5235 34.1457 54.0392 34.1659 53.4271L34.9297 36.9357C34.9426 36.66 35.0354 36.3934 35.1981 36.1701L38.448 31.7033V23.7605C38.448 23.7127 38.4508 23.6658 38.4554 23.618C38.5418 22.7706 38.2642 21.926 37.6934 21.2936C37.1217 20.6613 36.3102 20.301 35.4582 20.301H35.1567L33.87 22.3212C33.4674 22.9526 32.643 23.1603 31.9895 22.7954L30.4271 21.9223L28.9969 22.7706C28.6734 22.9673 28.2846 23.0252 27.9179 22.9324C27.5512 22.8395 27.2369 22.6033 27.0457 22.2771L25.8895 20.3001H25.4869C24.634 20.3001 23.8224 20.6613 23.2508 21.2936C22.6791 21.925 22.4024 22.7697 22.4879 23.618C22.4925 23.6649 22.4953 23.7127 22.4953 23.7605V31.7024L25.7672 36.1655C25.9318 36.3898 26.0264 36.6572 26.0393 36.9348L26.8021 53.4123C26.8168 54.0281 27.3205 54.5208 27.9372 54.5208H33.0299Z" fill="#FF4848"/>
</g>
<defs>
<clipPath id="clip0">
<rect width="110" height="110" fill="white"/>
</clipPath>
</defs>
</svg>
