<svg width="110" height="110" viewBox="0 0 110 110" fill="none" xmlns="http://www.w3.org/2000/svg">
<g clip-path="url(#clip0)">
<path d="M48.6695 109.997C35.7187 107.094 25.9957 94.8099 25.9957 80.9961C25.9957 65.8111 50.0397 42.3674 52.7839 39.771L54.9996 37.6688L57.2153 39.771C59.9593 42.3674 84.0035 65.8111 84.0035 80.9961C84.0035 94.8136 74.2754 107.102 61.3199 110C71.0126 108.209 87.7384 101.915 96.3119 87.734C104.822 73.657 103.116 54.8395 91.2418 32.2337L88.3528 26.7388L82.2882 38.5563C79.5503 35.2204 76.3968 32.3596 73.3157 29.5649C67.053 23.8812 61.1332 18.2974 58.0554 9.09519L54.9996 0L51.9437 9.09519C48.8658 18.2974 42.946 23.8812 36.6833 29.5649C33.6023 32.3596 30.4488 35.2202 27.7108 38.5563L21.6462 26.7388L18.7572 32.2337C6.88623 54.8331 5.18058 73.6443 13.6809 87.7216C22.2443 101.901 38.9759 108.201 48.6695 109.997Z" fill="#FF4848"/>
<path d="M77.5581 80.9962C77.5581 71.4479 62.8862 54.5311 54.9995 46.6162C47.1128 54.5375 32.4409 71.4573 32.4409 80.9962C32.4409 93.4337 42.562 104.295 54.9995 104.295C67.437 104.295 77.5581 93.4337 77.5581 80.9962ZM55.7517 77.8616C59.0876 78.664 64.6675 80.0049 64.6675 87.4415C64.6675 91.6374 61.9652 95.181 58.2222 96.5158V100.332H51.7769V96.5158C48.0338 95.181 45.3315 91.6374 45.3315 87.4415H51.7769C51.7769 89.2195 53.2215 90.6641 54.9995 90.6641C56.7776 90.6641 58.2222 89.2195 58.2222 87.4415C58.2222 85.3265 57.8131 84.9867 54.2473 84.1307C50.9115 83.3283 45.3315 81.9874 45.3315 74.5508C45.3315 70.3549 48.0338 66.8113 51.7769 65.4765V61.6602H58.2222V65.4765C61.9652 66.8113 64.6675 70.3549 64.6675 74.5508H58.2222C58.2222 72.7728 56.7776 71.3282 54.9995 71.3282C53.2215 71.3282 51.7769 72.7728 51.7769 74.5508C51.7769 76.6658 52.1859 77.0056 55.7517 77.8616Z" fill="#FF4848"/>
</g>
<defs>
<clipPath id="clip0">
<rect width="110" height="110" fill="white"/>
</clipPath>
</defs>
</svg>
