<svg width="100" height="100" viewBox="0 0 100 100" fill="none" xmlns="http://www.w3.org/2000/svg">
<g clip-path="url(#clip0)">
<path d="M15.9827 66.0042C18.7493 68.4792 21.8868 70.4417 25.2493 71.9167L42.9327 60.8126C46.591 58.5042 51.491 59.0501 54.5535 62.1292L60.4993 68.0751C69.4118 61.5042 74.9993 50.9917 74.9993 39.5834C74.9993 20.0542 59.1118 4.16675 39.5827 4.16675C20.0535 4.16675 4.16602 20.0542 4.16602 39.5834C4.16602 49.6626 8.47018 59.2917 15.9827 66.0042ZM41.166 42.7084H37.9993C33.1285 42.7084 29.166 38.7459 29.166 33.8751C29.166 29.4959 32.3243 25.8917 36.4577 25.1584V21.8751C36.4577 20.1501 37.8577 18.7501 39.5827 18.7501C41.3077 18.7501 42.7077 20.1501 42.7077 21.8751V25.0001H46.8743C48.5993 25.0001 49.9993 26.4001 49.9993 28.1251C49.9993 29.8501 48.5993 31.2501 46.8743 31.2501H37.9993C36.5743 31.2501 35.416 32.4084 35.416 33.8334C35.416 35.3001 36.5743 36.4584 37.9993 36.4584H41.166C46.0368 36.4584 49.9993 40.4209 49.9993 45.2917C49.9993 49.6709 46.841 53.2751 42.7077 54.0084V57.2876C42.7077 59.0126 41.3077 60.4126 39.5827 60.4126C37.8577 60.4126 36.4577 59.0126 36.4577 57.2876V54.1667H32.291C30.566 54.1667 29.166 52.7667 29.166 51.0417C29.166 49.3167 30.566 47.9167 32.291 47.9167H41.166C42.591 47.9167 43.7493 46.7584 43.7493 45.3334C43.7493 43.8667 42.591 42.7084 41.166 42.7084Z" fill="#FF4848"/>
<path d="M95.8338 50H79.1671C77.4838 50 75.9588 51.0167 75.3171 52.5708C74.6713 54.1292 75.0296 55.9208 76.2213 57.1125L81.6088 62.5L64.5838 79.525L50.8629 65.8042C49.5004 64.4333 47.3588 64.1958 45.7254 65.2083L1.97544 92.2917C0.0171036 93.5042 -0.582896 96.0708 0.625437 98.025C1.41294 99.3 2.77544 100 4.17127 100C4.92127 100 5.67544 99.8 6.35877 99.375L47.3004 74.0292L61.6338 88.3625C63.2629 89.9917 65.8963 89.9917 67.5254 88.3625L87.5004 68.3917L92.8879 73.7792C93.6838 74.575 94.7504 75 95.8338 75C96.3713 75 96.9129 74.8958 97.4296 74.6833C98.9879 74.0375 100 72.5167 100 70.8333V54.1667C100 51.8667 98.1379 50 95.8338 50Z" fill="#FF4848"/>
</g>
<defs>
<clipPath id="clip0">
<rect width="100" height="100" fill="white"/>
</clipPath>
</defs>
</svg>
