<svg width="130" height="34" viewBox="0 0 130 34" fill="none" xmlns="http://www.w3.org/2000/svg">
<path d="M0 5.52703C0 2.47454 2.47454 0 5.52703 0H82.9055C85.958 0 88.4325 2.47454 88.4325 5.52703V27.6352C88.4325 30.6877 85.958 33.1622 82.9055 33.1622H5.52703C2.47454 33.1622 0 30.6877 0 27.6352V5.52703Z" fill="#FF4848"/>
<path d="M102.91 26.0765V11.3304H101.075V22.8488L92.5855 11.3304H90.7063V26.0765H92.5412V14.315L101.141 26.0765H102.91Z" fill="black"/>
<path d="M116.462 26.0765V24.4405H108.636V19.3557H116.308V17.7197H108.636V12.9664H116.462V11.3304H106.801V26.0765H116.462Z" fill="black"/>
<path d="M125.313 26.0765V12.9664H130V11.3304H118.813V12.9664H123.478V26.0765H125.313Z" fill="black"/>
<path d="M31.2001 26.0047C34.544 26.0047 37.1693 24.6229 39.0485 22.5227V15.4481H30.2605V18.8748H35.1243V21.0856C34.3781 21.7765 32.8306 22.495 31.2001 22.495C27.8562 22.495 25.4244 19.9249 25.4244 16.4429C25.4244 12.9609 27.8562 10.3908 31.2001 10.3908C33.1622 10.3908 34.7374 11.4962 35.5665 12.7951L38.8274 11.0264C37.4457 8.84324 35.0414 6.90878 31.2001 6.90878C25.8112 6.90878 21.3896 10.6119 21.3896 16.4429C21.3896 22.2463 25.8112 26.0047 31.2001 26.0047Z" fill="white"/>
<path d="M59.7166 25.6454L52.6143 7.21277H47.6953L40.5654 25.6454H45.0423L46.203 22.5227H54.1066L55.2397 25.6454H59.7166ZM53.0289 19.0683H47.2807L50.1548 11.137L53.0289 19.0683Z" fill="white"/>
<path d="M65.8956 25.6454V7.21277H61.9714V25.6454H65.8956Z" fill="white"/>
<path d="M86.6058 25.6454V7.21277H82.6816V18.7919L74.1423 7.21277H70.1076V25.6454H74.0318V13.6241L82.8198 25.6454H86.6058Z" fill="white"/>
</svg>
