<svg width="100" height="100" viewBox="0 0 100 100" fill="none" xmlns="http://www.w3.org/2000/svg">
<path d="M90.6149 67.8972C90.2952 67.0902 89.5151 66.5602 88.6471 66.5602H88.2776C87.1454 66.5602 86.3142 65.5122 86.9279 64.5608C88.4212 62.2467 88.7405 60.2031 89.0221 58.3999C89.1997 57.2636 89.3675 56.1904 89.8238 54.9521C90.3949 53.4018 92.4424 53.8648 93.0635 55.3957L93.4519 56.3532C94.0621 57.8572 95.7759 58.5818 97.2799 57.9716C98.7826 57.3619 99.5075 55.6501 98.8995 54.1467L91.0653 34.7749C90.5347 33.4627 89.1443 32.715 87.757 32.9957C87.4838 33.0509 81.0202 34.4357 76.9785 41.9199C74.3699 46.7507 68.8743 50.6263 62.0499 52.6338C60.5261 53.082 58.9807 52.1271 58.563 50.5946L58.4833 50.3022C58.051 48.7165 56.4018 47.794 54.8244 48.2557C50.118 49.6332 47.3666 50.8751 43.1785 53.3439C43.1134 53.3823 43.0557 53.4336 43.0096 53.4935L32.7523 67.2674C32.1861 68.0277 31.294 68.4756 30.3462 68.4756H24.2148C23.2594 68.4756 22.3628 68.0229 21.7969 67.2531C20.4993 65.4881 18.0311 62.136 15.9838 59.3869C15.185 58.3143 13.7496 57.875 12.6004 58.5593C11.7769 59.0496 11.0142 59.6304 10.31 60.3027C7.60829 62.8821 6.27335 66.9024 6.57213 70.8695C6.66529 72.1064 6.1914 73.3576 5.15848 74.0445L2.30168 75.9444C1.00117 76.8092 0.581811 78.5273 1.33758 79.8941L7.26997 90.6228C7.79821 91.5782 8.8037 92.1712 9.89535 92.1712H10.7205C11.5775 92.1712 12.3937 91.8046 12.963 91.1639L15.1136 88.7437C18.1874 85.2847 22.6041 83.301 27.2313 83.301C31.1345 83.301 34.914 84.7159 37.8739 87.2851C41.2426 90.2091 44.5179 91.8144 47.5984 92.1567C51.1353 92.5499 53.2681 91.6844 56.1234 90.7688C58.2873 90.0748 59.9405 89.3623 62.7768 89.73C63.9751 89.8853 65.066 89.9595 66.0654 89.9595C71.6706 89.9593 74.3573 87.6217 76.4742 84.1482C77.2054 82.9485 78.2269 82.2585 79.1995 81.952C80.3274 81.5966 81.4147 81.9841 82.2763 82.5264C83.4767 83.2819 84.9985 83.6887 86.2714 83.0631L86.6364 82.8837C88.2385 82.0962 90.1865 82.8741 90.5652 84.6187C90.7316 85.3854 90.8613 86.1596 90.9539 86.9398C91.145 88.5507 92.4415 89.8702 94.0636 89.8702C95.6858 89.8702 97.0157 88.5523 96.8617 86.9374C96.5852 84.0386 95.8974 81.2034 94.8071 78.4768L90.6149 67.8972Z" fill="#FF4848"/>
<path d="M25.6719 62.6011H28.8763L38.3413 49.9279C42.3366 44.7008 47.8085 37.542 47.8085 28.2804C47.8085 16.9577 38.5969 7.74603 27.2742 7.74603C15.9515 7.74603 6.73962 16.9577 6.73962 28.2804C6.73962 37.542 12.2113 44.7008 16.2068 49.9279L25.6719 62.6011ZM17.4964 28.2804C17.4964 22.889 21.8828 18.5026 27.2742 18.5026C32.6656 18.5026 37.0519 22.889 37.0519 28.2804C37.0519 33.6718 32.6656 38.0582 27.2742 38.0582C21.8828 38.0582 17.4964 33.672 17.4964 28.2804Z" fill="#FF4848"/>
<path d="M30.893 29.7811C31.7186 27.7891 30.7732 25.5049 28.7812 24.6792C26.7892 23.8536 24.505 24.799 23.6794 26.791C22.8537 28.783 23.7991 31.0672 25.7911 31.8929C27.7831 32.7185 30.0673 31.7731 30.893 29.7811Z" fill="#FF4848"/>
</svg>
