<svg width="100" height="100" viewBox="0 0 100 100" fill="none" xmlns="http://www.w3.org/2000/svg">
<g clip-path="url(#clip0)">
<path d="M33.2999 18.75H66.6999L73.9083 12.9833C76.3624 11.025 77.2791 7.84583 76.2416 4.87917C75.2041 1.9125 72.5083 0 69.3749 0H30.6249C27.4916 0 24.7958 1.91667 23.7583 4.87917C22.7208 7.84167 23.6374 11.025 26.0874 12.9792L33.2999 18.75Z" fill="#FF4848"/>
<path d="M67.2708 25H32.7292C21.35 36.1708 12.5 55.7708 12.5 71.875C12.5 85.8708 19.9083 100 36.4583 100H64.5833C78.7208 100 87.5 89.2208 87.5 71.875C87.5 55.7708 78.65 36.1708 67.2708 25ZM48.4167 59.375H51.5833C56.4542 59.375 60.4167 63.3375 60.4167 68.2083C60.4167 72.5875 57.2583 76.1917 53.125 76.925V80.2042C53.125 81.9292 51.725 83.3292 50 83.3292C48.275 83.3292 46.875 81.9292 46.875 80.2042V77.0833H42.7083C40.9833 77.0833 39.5833 75.6833 39.5833 73.9583C39.5833 72.2333 40.9833 70.8333 42.7083 70.8333H51.5833C53.0083 70.8333 54.1667 69.675 54.1667 68.25C54.1667 66.7833 53.0083 65.625 51.5833 65.625H48.4167C43.5458 65.625 39.5833 61.6625 39.5833 56.7917C39.5833 52.4125 42.7417 48.8083 46.875 48.075V44.7917C46.875 43.0667 48.275 41.6667 50 41.6667C51.725 41.6667 53.125 43.0667 53.125 44.7917V47.9167H57.2917C59.0167 47.9167 60.4167 49.3167 60.4167 51.0417C60.4167 52.7667 59.0167 54.1667 57.2917 54.1667H48.4167C46.9917 54.1667 45.8333 55.325 45.8333 56.75C45.8333 58.2167 46.9917 59.375 48.4167 59.375Z" fill="#FF4848"/>
</g>
<defs>
<clipPath id="clip0">
<rect width="100" height="100" fill="white"/>
</clipPath>
</defs>
</svg>
