<svg width="100" height="100" viewBox="0 0 100 100" fill="none" xmlns="http://www.w3.org/2000/svg">
<g clip-path="url(#clip0)">
<path d="M99.386 60.0915L81.715 93.5354C80.8504 95.1983 78.3998 96.9572 76.5073 96.9572L5.64242 96.9702C4.14532 96.9702 2.70996 96.3768 1.65212 95.3181C0.594285 94.2592 0 92.8254 0 91.3278L0.0114707 36.3005C0.0114707 33.1885 2.53419 30.6635 5.64647 30.6604L10.8277 30.6555V35.4624H7.36134C6.68288 35.4624 6.03124 35.7317 5.55116 36.2118C5.07158 36.6918 4.80185 37.343 4.80185 38.0219L4.80691 89.6058C4.80691 91.0208 5.95348 92.1653 7.36691 92.1653H10.9169L27.6642 58.2868C28.6104 56.3943 30.3983 54.8649 32.2881 54.8649H73.3027L73.3167 41.231C75.9948 41.4794 78.1084 43.7008 78.1084 46.4423V54.865H96.9193C99.1407 54.8878 101.011 57.0844 99.386 60.0915ZM14.0952 75.1114C13.9422 58.2479 14.0952 7.65604 14.0952 7.65604C14.0952 5.10346 16.171 3.02911 18.7211 3.02911H55.7672C56.3606 3.02911 56.9267 3.27742 57.3277 3.71415L69.3045 16.7269C69.6635 17.1187 69.8647 17.6317 69.8647 18.1632V51.8735H65.9791V21.0741C65.9791 20.5412 65.5465 20.1084 65.0129 20.1084H55.8459C54.7731 20.1084 53.9006 19.2374 53.9006 18.1666V7.8809C53.9006 7.34785 53.468 6.91516 52.9344 6.91516H18.7234C18.3147 6.91516 17.9821 7.24764 17.9821 7.65604V70.8697L15.0088 76.8851C15.0089 76.8841 14.1105 76.8183 14.0952 75.1114ZM57.7902 16.2243H63.5614L57.7902 9.9512V16.2243ZM59.8949 24.0658H24.0907C22.7716 24.0658 21.7008 25.1376 21.7008 26.4567C21.7008 27.7749 22.7726 28.8472 24.0907 28.8472H59.896C61.2151 28.8472 62.2891 27.774 62.2891 26.4567C62.2869 25.1386 61.2132 24.0658 59.8949 24.0658ZM62.2869 40.3793C62.2869 39.0612 61.2142 37.9904 59.8949 37.9904H24.0907C22.7716 37.9904 21.7008 39.0632 21.7008 40.3793C21.7008 41.6975 22.7726 42.7683 24.0907 42.7683H59.896C61.2132 42.7685 62.2869 41.6975 62.2869 40.3793ZM21.6993 54.3962C21.6993 55.7142 22.7716 56.7852 24.0897 56.7852H24.9482C26.4593 52.5736 30.2051 52.0073 30.2051 52.0073H24.0897C22.7736 52.0073 21.6993 53.0781 21.6993 54.3962Z" fill="#FF4848"/>
</g>
<defs>
<clipPath id="clip0">
<rect width="100" height="100" fill="white"/>
</clipPath>
</defs>
</svg>
