<svg width="115" height="115" viewBox="0 0 115 115" fill="none" xmlns="http://www.w3.org/2000/svg">
<g clip-path="url(#clip0)">
<path d="M72.1354 46.4625L82.0336 32.3777C73.9574 20.4684 60.3119 12.6288 44.8714 12.6288C20.1295 12.6288 0 32.7583 0 57.5C0 82.2417 20.1295 102.371 44.8712 102.371C60.154 102.371 73.6758 94.6914 81.7812 82.9894L83.709 51.7818H74.8988C72.1634 51.7818 70.566 48.6946 72.1354 46.4625ZM49.7988 78.5732C49.7988 78.5732 49.8503 78.5709 48.2493 78.5709V83.7779C48.2493 85.6427 46.738 87.156 44.871 87.156C43.0062 87.156 41.4929 85.6425 41.4929 83.7779V78.5709H39.3938C35.2139 78.5416 31.2457 76.6364 28.5026 73.3438C27.3089 71.9115 27.5026 69.7809 28.9374 68.5873C30.3133 67.4409 32.3335 67.574 33.5475 68.8552C33.5971 68.9071 33.6467 68.9632 33.6939 69.0196C35.1578 70.7784 37.2501 71.7965 39.4346 71.8145H49.7314C49.754 71.8168 49.7765 71.8168 49.7991 71.8168C52.8186 71.8168 55.2672 69.3714 55.2672 66.3464C55.2672 63.3309 52.8123 60.8783 49.7968 60.8783C47.5796 60.8783 42.3056 60.8783 39.946 60.8783C33.2055 60.8783 27.7215 55.3944 27.7215 48.6538C27.7215 41.8647 33.2278 36.3918 40.0227 36.4293H41.4934V31.2225C41.4934 29.3577 43.0068 27.8442 44.8714 27.8442C46.7385 27.8442 48.2497 29.3577 48.2497 31.2225V36.4293H49.4906C54.3235 36.4631 58.7918 38.9561 61.4404 43.0979L61.4923 43.1789C62.4966 44.751 62.0351 46.8386 60.4632 47.8431C58.9497 48.8087 56.8362 48.4682 55.7473 46.7351C54.3601 44.5686 51.948 43.2059 49.4505 43.1856H40.0119C39.9893 43.1856 39.9668 43.1834 39.9465 43.1834C36.924 43.1834 34.4784 45.6288 34.4784 48.6538C34.4784 51.6693 36.9308 54.1219 39.9465 54.1219H49.7973C56.5378 54.1219 62.024 59.6058 62.024 66.3464C62.0233 73.0802 56.575 78.5732 49.7988 78.5732Z" fill="#FF4848"/>
<path d="M109.097 45.0254C107.158 45.0254 105.608 46.6636 105.726 48.6132L108.454 92.7896C108.575 94.7336 107.03 96.3761 105.083 96.3761H91.3188C89.3706 96.3761 87.826 94.732 87.9459 92.7874C89.1863 72.6768 87.5301 99.5462 90.6748 48.613C90.793 46.662 89.2436 45.0252 87.3033 45.0252H81.4026C82.6974 43.1827 93.9534 27.1657 97.2796 22.4329C97.7286 21.7938 98.6748 21.795 99.1237 22.434L115 45.0254H109.097Z" fill="#FF4848"/>
</g>
<defs>
<clipPath id="clip0">
<rect width="115" height="115" fill="white"/>
</clipPath>
</defs>
</svg>
