<svg width="100" height="100" viewBox="0 0 100 100" fill="none" xmlns="http://www.w3.org/2000/svg">
<g clip-path="url(#clip0)">
<path d="M76.0408 25.0003H61.4575C60.1908 25.0003 59.0533 24.2378 58.57 23.0712C58.0908 21.9045 58.3533 20.5587 59.2491 19.667L73.8325 5.08367C74.7242 4.18784 76.07 3.92117 77.2367 4.40451C78.4033 4.88784 79.1658 6.02951 79.1658 7.29201V21.8753C79.1658 23.6003 77.7658 25.0003 76.0408 25.0003Z" fill="#FF4848"/>
<path d="M23.959 54.1668C23.5548 54.1668 23.1507 54.0876 22.7632 53.9293C21.5965 53.4459 20.834 52.3043 20.834 51.0418V36.4585C20.834 34.7335 22.234 33.3335 23.959 33.3335H38.5423C39.809 33.3335 40.9465 34.096 41.4298 35.2627C41.909 36.4293 41.6465 37.7752 40.7507 38.6668L26.1673 53.2501C25.5715 53.8501 24.7715 54.1668 23.959 54.1668Z" fill="#FF4848"/>
<path d="M18.7507 79.1668C24.5036 79.1668 29.1673 74.5031 29.1673 68.7501C29.1673 62.9972 24.5036 58.3335 18.7507 58.3335C12.9977 58.3335 8.33398 62.9972 8.33398 68.7501C8.33398 74.5031 12.9977 79.1668 18.7507 79.1668Z" fill="#FF4848"/>
<path d="M26.0417 83.3333H11.4583C5.1375 83.3333 0 88.4708 0 94.7916V96.875C0 98.6 1.4 100 3.125 100H34.375C36.1 100 37.5 98.6 37.5 96.875V94.7916C37.5 88.4708 32.3625 83.3333 26.0417 83.3333Z" fill="#FF4848"/>
<path d="M81.2506 79.1668C87.0036 79.1668 91.6673 74.5031 91.6673 68.7501C91.6673 62.9972 87.0036 58.3335 81.2506 58.3335C75.4977 58.3335 70.834 62.9972 70.834 68.7501C70.834 74.5031 75.4977 79.1668 81.2506 79.1668Z" fill="#FF4848"/>
<path d="M88.5417 83.3333H73.9583C67.6375 83.3333 62.5 88.4708 62.5 94.7916V96.875C62.5 98.6 63.9 100 65.625 100H96.875C98.6 100 100 98.6 100 96.875V94.7916C100 88.4708 94.8625 83.3333 88.5417 83.3333Z" fill="#FF4848"/>
<path d="M25.6711 27.5833C25.3503 27.5833 25.0295 27.5458 24.7045 27.4708C22.467 26.9375 21.0836 24.6917 21.6128 22.4542C24.7545 9.23333 36.4295 0 50.0003 0C57.7253 0 64.9961 2.9875 70.4753 8.41667C72.1086 10.0375 72.1253 12.675 70.5045 14.3083C68.8795 15.9417 66.2503 15.9583 64.6086 14.3375C60.7003 10.4667 55.5128 8.33333 50.0003 8.33333C40.3086 8.33333 31.967 14.9292 29.7211 24.3833C29.2628 26.2958 27.5545 27.5833 25.6711 27.5833Z" fill="#FF4848"/>
<path d="M50.001 58.3334C42.276 58.3334 35.0051 55.3459 29.526 49.9168C27.8926 48.296 27.876 45.6585 29.4968 44.0251C31.1218 42.3876 33.751 42.3751 35.3926 43.996C39.301 47.8668 44.4885 50.0001 50.001 50.0001C59.6926 50.0001 68.0343 43.4043 70.2801 33.9501C70.8135 31.7085 73.0635 30.346 75.2968 30.8626C77.5343 31.3918 78.9176 33.6418 78.3843 35.8793C75.2468 49.1001 63.5718 58.3334 50.001 58.3334Z" fill="#FF4848"/>
</g>
<defs>
<clipPath id="clip0">
<rect width="100" height="100" fill="white"/>
</clipPath>
</defs>
</svg>
