<svg width="100" height="100" viewBox="0 0 100 100" fill="none" xmlns="http://www.w3.org/2000/svg">
<path d="M17.5781 35.5469C11.115 35.5469 5.85938 30.2912 5.85938 23.8281C5.85938 17.365 11.115 12.1094 17.5781 12.1094C24.0412 12.1094 29.2969 17.365 29.2969 23.8281C29.2969 30.2912 24.0412 35.5469 17.5781 35.5469Z" fill="#FF4848"/>
<path d="M82.4219 35.5469C75.9588 35.5469 70.7031 30.2912 70.7031 23.8281C70.7031 17.365 75.9588 12.1094 82.4219 12.1094C88.885 12.1094 94.1406 17.365 94.1406 23.8281C94.1406 30.2912 88.885 35.5469 82.4219 35.5469Z" fill="#FF4848"/>
<path d="M50 29.2969C41.9232 29.2969 35.3516 22.7252 35.3516 14.6484C35.3516 6.57168 41.9232 0 50 0C58.0768 0 64.6484 6.57168 64.6484 14.6484C64.6484 22.7252 58.0768 29.2969 50 29.2969Z" fill="#FF4848"/>
<path d="M52.9297 29.593V49.8047C52.9297 51.424 51.6193 52.7344 50 52.7344C48.3807 52.7344 47.0703 51.424 47.0703 49.8047V29.593C37.1582 31.0299 29.4922 39.501 29.4922 49.8047V67.3828C29.4922 69.0021 30.8025 70.3125 32.4219 70.3125H38.9852L41.2225 97.3164C41.3482 98.8326 42.6186 100 44.1406 100H55.8594C57.3814 100 58.6518 98.8326 58.7775 97.3164L61.0148 70.3125H67.5781C69.1975 70.3125 70.5078 69.0021 70.5078 67.3828V49.8047C70.5078 39.501 62.8418 31.0299 52.9297 29.593Z" fill="#FF4848"/>
<path d="M23.4375 67.7734V50.1953C23.4375 45.8039 24.6191 41.723 26.5256 38.0777C23.8949 36.5074 20.8582 35.5469 17.5781 35.5469C7.88496 35.5469 0 43.4318 0 53.125V67.7734C0 69.3928 1.31035 70.7031 2.92969 70.7031H6.13691L8.80332 97.3621C8.95215 98.8584 10.2139 100 11.7188 100H23.4375C24.9424 100 26.2041 98.8584 26.3529 97.3621L28.5184 75.7131C25.5271 74.3094 23.4375 71.2904 23.4375 67.7734Z" fill="#FF4848"/>
<path d="M100 53.125C100 43.4318 92.115 35.5469 82.4219 35.5469C79.1418 35.5469 76.1051 36.5074 73.4744 38.0777C75.3808 41.723 76.5625 45.8039 76.5625 50.1953V67.7734C76.5625 71.2904 74.4728 74.3094 71.4816 75.7131L73.6471 97.3621C73.7959 98.8584 75.0576 100 76.5625 100H88.2812C89.7861 100 91.0478 98.8584 91.1967 97.3621L93.8631 70.7031H97.0703C98.6896 70.7031 100 69.3928 100 67.7734V53.125Z" fill="#FF4848"/>
</svg>
