<svg width="100" height="100" viewBox="0 0 100 100" fill="none" xmlns="http://www.w3.org/2000/svg">
<path d="M79.2969 58.7891C67.9901 58.7891 58.7891 67.9901 58.7891 79.2969C58.7891 90.6036 67.9901 100 79.2969 100C90.6036 100 100 90.6036 100 79.2969C100 67.9901 90.6036 58.7891 79.2969 58.7891ZM88.0859 82.2266H76.3672V70.5078H82.2266V76.3672H88.0859V82.2266Z" fill="#FF4848"/>
<path d="M64.6484 17.7734V0H23.6328V17.7734H35.3516V11.9141H52.9297V17.7734H64.6484Z" fill="#FF4848"/>
<path d="M55.8594 52.9297C70.3987 52.9297 82.2266 41.1018 82.2266 26.5625V23.6328H5.85938V26.5625C5.85938 41.1018 17.8825 52.9297 32.4219 52.9297H35.3516V47.0703H52.9297V52.9297H55.8594Z" fill="#FF4848"/>
<path d="M41.2109 52.9297H47.0703V58.7891H41.2109V52.9297Z" fill="#FF4848"/>
<path d="M52.9297 79.2969C52.9297 70.3102 57.4638 62.3795 64.3486 57.6172C61.6394 58.3595 58.8013 58.7891 55.8594 58.7891H52.9297V64.6484H35.3516V58.7891H32.4219C14.6523 58.7891 0 44.3321 0 26.5625V93.9453H57.3929C54.5799 89.7514 52.9297 84.7153 52.9297 79.2969Z" fill="#FF4848"/>
<path d="M88.0859 54.5494V26.5625C88.0859 37.9883 82.0923 48.0186 73.101 53.7422C75.0976 53.2578 77.153 52.9297 79.2969 52.9297C82.3936 52.9297 85.3233 53.5645 88.0859 54.5494Z" fill="#FF4848"/>
</svg>
